<svg width="23" height="15" viewBox="0 0 23 15" fill="none" xmlns="http://www.w3.org/2000/svg">
<path d="M21.7614 2.45321C21.6134 2.36964 21.432 2.36964 21.2841 2.45321L16.75 4.99286V2.39286C16.75 1.62679 16.1057 1 15.3182 1H2.43182C1.64432 1 1 1.62679 1 2.39286V12.6071C1 13.3732 1.64432 14 2.43182 14H15.3182C16.1057 14 16.75 13.3732 16.75 12.6071V10.0071L21.2841 12.5468C21.3605 12.5886 21.4416 12.6071 21.5227 12.6071C21.6039 12.6071 21.6898 12.5886 21.7614 12.5468C21.9093 12.4632 22 12.31 22 12.1429V2.85714C22 2.69 21.9093 2.53679 21.7614 2.45321ZM15.7955 12.6071C15.7955 12.8625 15.5807 13.0714 15.3182 13.0714H2.43182C2.16932 13.0714 1.95455 12.8625 1.95455 12.6071V2.39286C1.95455 2.1375 2.16932 1.92857 2.43182 1.92857H15.3182C15.5807 1.92857 15.7955 2.1375 15.7955 2.39286V12.6071ZM21.0455 11.3396L16.75 8.93464V6.06536L21.0455 3.66036V11.3396Z" fill="#0A0C0C" stroke="#0A0C0C" stroke-width="0.4"/>
</svg>
