<svg width="13" height="14" viewBox="0 0 13 14" fill="none" xmlns="http://www.w3.org/2000/svg">
<path d="M11.0262 5.59494L3.47336 1.30305C3.11917 1.10193 2.77135 1 2.43955 1C1.5784 1 1 1.68681 1 2.70894V11.2913C1 12.3134 1.57819 13 2.43936 13C2.77135 13 3.11898 12.8979 3.47338 12.6967L11.0262 8.40506C11.6541 8.04856 12 7.54934 12 7.00001C12 6.45087 11.6542 5.95165 11.0262 5.59494ZM10.6361 7.74005L3.08326 12.0317C2.8525 12.1628 2.62976 12.232 2.43936 12.232C1.84448 12.232 1.78002 11.5739 1.78023 11.2912V2.70894C1.78023 2.42605 1.84469 1.76795 2.43957 1.76795C2.62997 1.76795 2.8525 1.83721 3.08305 1.96825L10.6361 6.25993C11.0072 6.47084 11.22 6.74061 11.22 6.99999C11.22 7.25937 11.0072 7.52914 10.6361 7.74005Z" fill="#FFEE54" stroke="#FFEE54" stroke-width="0.4"/>
</svg>
