<svg  viewBox="0 0 201 201" fill="none" xmlns="http://www.w3.org/2000/svg">
<path d="M118.532 49.5617C118.903 50.5247 119.093 52.0095 119.093 54.0158C119.093 56.0221 118.903 57.6974 118.532 58.7307C118.16 59.7639 117.528 60.436 116.676 60.8072C115.823 61.1382 114.629 61.3288 113.104 61.3288H109.463V48.4783H103.223V66.5754H113.997C116.154 66.5754 117.94 66.3849 119.424 66.0538C120.869 65.7228 122.023 65.0908 122.915 64.1578C123.808 63.265 124.44 61.9608 124.811 60.3357C125.183 58.7005 125.403 56.5839 125.403 54.0158C125.403 51.4477 125.253 49.9328 124.922 48.4381H117.859C118.12 48.7391 118.341 49.1102 118.532 49.5516V49.5617Z" fill="#385E89"/>
<path d="M109.473 75.6437H113.114C114.599 75.6437 115.793 75.7941 116.686 76.1252C117.538 76.4261 118.17 77.0883 118.542 78.0613C118.913 79.0344 119.103 80.509 119.103 82.5154C119.103 84.5217 118.913 86.1971 118.542 87.2303C118.351 87.752 118.1 88.1933 117.799 88.5344H124.892C125.223 86.9393 125.413 84.933 125.413 82.5154C125.413 80.0977 125.223 78.0212 124.821 76.4563C124.45 74.8913 123.778 73.6674 122.925 72.7746C122.033 71.8818 120.879 71.2899 119.434 70.9188C117.99 70.5877 116.164 70.3971 114.007 70.3971H103.233V88.4943H109.473V75.6437Z" fill="#385E89"/>
<path d="M100.775 70.4075H76.2179V88.5047H100.775V70.4075Z" fill="#A1BFD1"/>
<path d="M89.7406 51.2367C90.2221 53.1327 90.7839 55.0587 91.3356 57.0651H85.758C86.3198 55.0989 86.8314 53.1227 87.3229 51.2367C87.5838 50.2335 87.8045 49.3006 87.9951 48.4479H82.0864L76.1777 66.5751V66.6454H82.8288C83.2702 65.3112 83.7617 63.7462 84.2733 61.9304H92.71C93.011 62.8634 93.2718 63.7161 93.5226 64.4986C93.7834 65.3112 93.9639 66.0235 94.1545 66.6555H100.806V66.5451L94.937 48.4479H89.0284C89.219 49.3006 89.4397 50.2335 89.7005 51.2367H89.7406Z" fill="#E84F16"/>
<path d="M35.2384 124.618L33.0815 130.708H29.9617L37.4654 109.42H41.3677L49.2025 130.708H45.8619L43.6349 124.618H35.2384ZM42.8524 121.94C40.9163 116.553 39.8429 113.584 39.3614 111.908C38.8397 113.764 37.6159 117.335 36.0509 121.94H42.8524Z" fill="#385E89"/>
<path d="M52.4427 109.42H60.2073C66.2263 109.42 70.2791 113.503 70.2791 119.863C70.2791 126.223 66.3367 130.748 60.0969 130.748H52.4427V109.46V109.42ZM55.6027 128.069H59.8762C64.7015 128.069 66.9687 124.578 66.9687 119.893C66.9687 115.209 64.8921 112.059 59.8762 112.059H55.6027V128.069Z" fill="#385E89"/>
<path d="M76.2581 124.759C76.8199 127.246 78.5253 128.551 81.4947 128.551C84.464 128.551 85.9186 127.106 85.9186 125.17C85.9186 123.234 84.8753 122.01 80.7122 121.007C75.5459 119.743 73.8806 117.957 73.8806 114.988C73.8806 112.018 76.2982 109.159 81.0934 109.159C85.8886 109.159 88.4165 112.099 88.6774 114.958H85.4773C85.1462 113.172 84.0327 111.647 80.9831 111.647C77.9334 111.647 77.1209 112.721 77.1209 114.657C77.1209 116.593 78.2745 117.295 81.9461 118.188C88.0353 119.673 89.1589 122.01 89.1589 124.799C89.1589 127.588 86.5205 131.008 81.2439 131.008C75.9672 131.008 73.4793 128.149 72.9978 124.729H76.2681V124.769L76.2581 124.759Z" fill="#385E89"/>
<path d="M93.1915 109.42H101.407C105.641 109.42 108.5 111.758 108.5 115.7C108.5 119.643 105.42 122.131 101.257 122.131H96.3515V130.718H93.1514V109.43H93.1915V109.42ZM96.3916 119.522H101.076C103.865 119.522 105.31 118.218 105.31 115.811C105.31 113.403 103.564 112.099 101.187 112.099H96.4318V119.562H96.3916V119.522Z" fill="#385E89"/>
<path d="M126.005 120.936H115.492V128.069H127.049L126.637 130.747H112.372V109.46H126.487V112.139H115.492V118.268H126.005V120.946V120.936Z" fill="#385E89"/>
<path d="M130.8 130.748V109.46H134.923C137.893 114.406 144.213 124.618 145.366 126.926C145.146 124.287 145.176 120.867 145.176 117.375V109.42H148.145V130.708H144.283C141.574 126.173 134.923 115.068 133.619 112.651C133.77 114.958 133.77 118.74 133.77 122.572V130.708H130.8V130.748Z" fill="#385E89"/>
<path d="M153.833 109.42H161.598C167.617 109.42 171.67 113.503 171.67 119.863C171.67 126.223 167.727 130.748 161.487 130.748H153.833V109.46V109.42ZM156.993 128.069H161.267C166.092 128.069 168.359 124.578 168.359 119.893C168.359 115.209 166.283 112.059 161.267 112.059H156.993V128.069Z" fill="#385E89"/>
</svg>
