<svg  viewBox="0 0 286 286" fill="none" xmlns="http://www.w3.org/2000/svg">
<path d="M40.9845 120.578C53.4539 120.578 63.586 130.72 63.586 143.179C63.586 155.639 53.4439 165.781 40.9845 165.781C28.5251 165.781 18.3831 155.639 18.3831 143.179C18.3831 130.72 28.5251 120.578 40.9845 120.578ZM40.9845 115.321C25.5959 115.321 13.1165 127.801 13.1165 143.189C13.1165 158.578 25.5959 171.057 40.9845 171.057C56.3731 171.057 68.8526 158.578 68.8526 143.189C68.8526 127.801 56.3731 115.321 40.9845 115.321Z" fill="#1D1D1B"/>
<path d="M40.9844 129.656C48.438 129.656 54.5072 135.726 54.5072 143.179C54.5072 150.633 48.438 156.702 40.9844 156.702C33.5308 156.702 27.4617 150.633 27.4617 143.179C27.4617 135.726 33.5308 129.656 40.9844 129.656ZM40.9844 124.4C30.6116 124.4 22.2051 132.806 22.2051 143.179C22.2051 153.552 30.6116 161.958 40.9844 161.958C51.3572 161.958 59.7638 153.552 59.7638 143.179C59.7638 132.806 51.3572 124.4 40.9844 124.4Z" fill="#1D1D1B"/>
<path d="M45.0271 144.995C44.3349 146.54 42.79 147.623 40.9843 147.623C38.5366 147.623 36.5503 145.637 36.5503 143.189C36.5503 140.742 38.5366 138.755 40.9843 138.755C42.78 138.755 44.3249 139.839 45.0271 141.384H50.5044C49.6518 136.9 45.7193 133.499 40.9843 133.499C35.6274 133.499 31.2937 137.843 31.2937 143.189C31.2937 148.536 35.6374 152.88 40.9843 152.88C45.7193 152.88 49.6518 149.489 50.5044 144.995H45.0271Z" fill="#1D1D1B"/>
<path d="M95.8781 161.387C85.7561 161.387 77.4097 153.813 77.4097 144.573C77.4097 135.334 85.7561 127.76 95.8781 127.76C105.238 127.76 112.691 134.191 113.704 141.965H101.416C100.523 139.798 98.3559 138.274 95.6875 138.274C92.2466 138.274 89.5079 141.203 89.5079 144.573C89.5079 147.944 92.2466 150.753 95.6875 150.753C98.3659 150.753 100.332 149.349 101.416 147.061H113.704C112.751 155.147 105.047 161.387 95.8781 161.387Z" fill="#1D1D1B"/>
<path d="M138.031 149.479L149.177 151.455C147.07 156.933 140.389 161.387 132.424 161.387C122.552 161.387 114.015 154.445 114.015 144.764C114.015 135.083 122.101 127.76 132.353 127.76C143.438 127.76 151.865 135.535 150.25 147.754H125.983C126.936 150.623 129.233 152.087 132.544 152.087C134.711 152.087 137.068 151.445 138.021 149.479H138.031ZM125.993 141.012H138.473C137.389 137.832 135.032 136.939 132.363 136.939C129.183 136.939 126.886 138.274 125.993 141.012Z" fill="#1D1D1B"/>
<path d="M151.554 128.663H162.188L162.89 131.532H163.081C165.247 128.984 168.749 127.77 172.119 127.77C180.716 127.77 186.063 134.2 186.063 142.607V160.504H173.965V143.821C173.965 140.952 171.608 138.534 168.809 138.534C166.01 138.534 163.652 140.952 163.652 143.821V160.504H151.554V128.663Z" fill="#1D1D1B"/>
<path d="M202.716 138.213V145.627C202.716 148.616 204.622 150.151 207.36 150.151C208.253 150.151 208.765 150.171 211.634 150.111L211.754 160.423C210.199 160.444 208.384 160.423 205.384 160.423C196.004 160.423 190.607 154.414 190.607 146.71V138.223H185.702V128.673H190.607V121.159H202.706V128.673H211.744V138.223H202.706L202.716 138.213Z" fill="#1D1D1B"/>
<path d="M214.363 128.663C214.363 128.663 230.574 128.653 234.336 128.593L237.395 138.855C230.704 138.855 229.681 138.876 226.461 138.876V160.504H214.363V128.663Z" fill="#1D1D1B"/>
<path d="M236.021 144.573C236.021 134.191 244.679 127.76 252.263 127.76C255.703 127.76 259.907 129.034 261.492 131.522H261.682L262.194 128.653H272.828V160.494H262.194L261.682 157.625H261.492C259.776 160.363 255.382 161.387 252.263 161.387C244.618 161.387 236.021 154.886 236.021 144.573ZM260.599 144.573C260.599 141.133 257.8 138.334 254.359 138.334C250.918 138.334 248.119 141.133 248.119 144.573C248.119 148.014 250.918 150.813 254.359 150.813C257.8 150.813 260.599 148.014 260.599 144.573Z" fill="#1D1D1B"/>
</svg>
