<svg  viewBox="0 0 287 286" fill="none" xmlns="http://www.w3.org/2000/svg">
<path d="M79.6202 120.036C79.6202 107.165 68.3646 97.7353 54.4205 97.7353C40.4765 97.7353 30.2942 106.633 30.2942 118.962C30.2942 132.365 39.413 139.337 49.5952 142.447C52.2737 143.309 55.6043 144.162 58.1724 144.694C63.5293 145.767 70.5014 148.446 70.5014 156.491C70.5014 163.995 64.6027 169.041 55.4939 169.041C47.4484 169.041 39.1924 162.821 39.4131 152.207L28.1575 156.501C28.3681 168.509 40.9178 179.875 55.5039 179.875C72.1265 179.875 81.777 168.298 81.777 156.501C81.777 143.099 73.1999 136.448 62.476 133.88C59.6872 133.237 56.788 132.595 53.8989 131.843C45.3218 129.596 41.5699 125.413 41.5699 119.514C41.5699 113.084 46.5055 108.259 54.4406 108.259C61.9443 108.259 67.843 113.615 67.843 120.056H79.6403L79.6202 120.036Z" fill="#325AA6"/>
<path d="M90.3242 152.739C90.3242 168.288 102.653 179.012 116.597 179.012C130.541 179.012 142.87 168.288 142.87 152.739C142.87 137.19 130.541 126.466 116.597 126.466C102.653 126.466 90.3242 137.19 90.3242 152.739ZM101.048 152.739C101.048 143.62 106.405 136.117 116.597 136.117C126.789 136.117 132.146 143.62 132.146 152.739C132.146 161.858 126.789 169.362 116.597 169.362C106.405 169.362 101.048 161.858 101.048 152.739Z" fill="#325AA6"/>
<path d="M163.214 96.4514H152.49V168.299L153.564 177.949H164.288L163.214 168.299V96.4514Z" fill="#325AA6"/>
<path d="M170.698 137.19H180.459V162.922C180.459 172.572 186.247 177.939 196.971 177.939L202.87 176.866V167.215L196.439 168.289C193.219 168.289 190.972 166.142 190.972 162.932V137.2H201.806V127.55H190.972V106.102H188.936L180.469 116.826V127.55H170.708V137.2L170.698 137.19Z" fill="#325AA6"/>
<path d="M259.178 127.54H249.527L248.454 131.833L247.922 132.365L247.391 131.833C244.17 128.613 238.813 126.477 233.446 126.477C219.502 126.477 207.715 137.2 207.715 152.75C207.715 168.299 219.512 179.023 233.446 179.023C238.803 179.023 244.17 176.876 247.391 173.666L247.922 173.134L248.454 173.666L249.527 177.959H259.178V127.56V127.54ZM249.527 152.74C249.527 161.858 243.097 169.362 233.978 169.362C223.796 169.362 218.319 161.858 218.319 152.74C218.319 143.621 223.786 136.117 233.978 136.117C243.097 136.117 249.527 143.621 249.527 152.74Z" fill="#325AA6"/>
</svg>
