<svg  viewBox="0 0 286 286" fill="none" xmlns="http://www.w3.org/2000/svg">
<path d="M126.155 119.945C127.198 119.945 128.171 120.126 129.074 120.497C129.977 120.868 130.759 121.39 131.421 122.062C132.083 122.744 132.625 123.566 133.026 124.55C133.428 125.533 133.658 126.626 133.728 127.85C133.749 128.181 133.759 128.542 133.759 128.933C133.759 129.325 133.749 129.686 133.728 130.017C133.658 131.241 133.428 132.344 133.026 133.317C132.625 134.3 132.093 135.133 131.421 135.815C130.759 136.507 129.967 137.029 129.074 137.4C128.171 137.771 127.198 137.952 126.155 137.952C124.8 137.952 123.707 137.721 122.884 137.27C122.062 136.818 121.43 136.287 120.988 135.685V136.718C120.988 136.959 120.898 137.169 120.717 137.35C120.537 137.531 120.326 137.621 120.085 137.621H118.851C118.611 137.621 118.4 137.531 118.219 137.35C118.039 137.169 117.949 136.959 117.949 136.718V114.849C117.949 114.608 118.039 114.397 118.219 114.217C118.4 114.036 118.611 113.946 118.851 113.946H120.085C120.326 113.946 120.537 114.036 120.717 114.217C120.898 114.397 120.988 114.608 120.988 114.849V122.212C121.41 121.66 122.032 121.139 122.854 120.657C123.677 120.176 124.78 119.945 126.155 119.945ZM120.988 130.378C121.099 131.823 121.59 132.966 122.453 133.809C123.316 134.652 124.439 135.073 125.823 135.073C127.288 135.073 128.442 134.601 129.274 133.668C130.107 132.735 130.579 131.471 130.689 129.866C130.709 129.244 130.709 128.622 130.689 128.001C130.579 126.395 130.107 125.131 129.274 124.198C128.442 123.266 127.288 122.794 125.823 122.794C124.359 122.794 123.295 123.225 122.453 124.078C121.61 124.931 121.119 126.155 120.988 127.73C120.948 128.061 120.918 128.502 120.918 129.044C120.918 129.586 120.938 130.027 120.988 130.358V130.378Z" fill="#00ABE7"/>
<path d="M136.477 127.279C136.567 126.255 136.808 125.302 137.21 124.41C137.611 123.517 138.132 122.744 138.774 122.072C139.417 121.41 140.189 120.888 141.092 120.507C141.995 120.126 142.998 119.946 144.111 119.946C145.315 119.946 146.378 120.136 147.331 120.527C148.274 120.919 149.077 121.48 149.749 122.213C150.421 122.945 150.923 123.838 151.284 124.881C151.635 125.924 151.816 127.088 151.816 128.382V129.285C151.816 129.526 151.725 129.736 151.545 129.917C151.364 130.098 151.154 130.188 150.913 130.188H139.447V130.389C139.487 131.903 139.948 133.057 140.831 133.87C141.704 134.682 142.807 135.083 144.111 135.083C145.335 135.083 146.248 134.913 146.86 134.572C147.472 134.231 147.963 133.839 148.345 133.418C148.525 133.238 148.676 133.117 148.816 133.047C148.957 132.977 149.147 132.947 149.418 132.947H150.421C150.662 132.947 150.893 133.037 151.083 133.217C151.284 133.398 151.364 133.609 151.314 133.849C151.244 134.251 151.063 134.692 150.742 135.164C150.431 135.645 149.98 136.087 149.388 136.498C148.796 136.909 148.064 137.25 147.191 137.531C146.308 137.812 145.285 137.952 144.111 137.952C142.998 137.952 141.995 137.762 141.112 137.371C140.219 136.979 139.447 136.448 138.794 135.766C138.142 135.083 137.611 134.291 137.21 133.368C136.808 132.445 136.567 131.442 136.477 130.348C136.367 129.325 136.367 128.302 136.477 127.279ZM139.447 127.379H148.816V127.279C148.816 125.924 148.385 124.841 147.532 124.028C146.679 123.216 145.536 122.815 144.111 122.815C143.469 122.815 142.867 122.925 142.316 123.136C141.764 123.346 141.272 123.647 140.851 124.038C140.43 124.43 140.099 124.901 139.848 125.453C139.607 126.005 139.467 126.617 139.447 127.289V127.389V127.379Z" fill="#00ABE7"/>
<path d="M159.63 131.783C159.63 132.204 159.671 132.595 159.751 132.966C159.831 133.338 159.972 133.649 160.172 133.919C160.373 134.19 160.654 134.391 161.025 134.531C161.396 134.672 161.868 134.752 162.439 134.752H164.205C164.446 134.752 164.656 134.842 164.837 135.023C165.017 135.204 165.108 135.414 165.108 135.655V136.718C165.108 136.959 165.017 137.17 164.837 137.35C164.656 137.531 164.446 137.621 164.205 137.621H162.108C160.172 137.621 158.778 137.12 157.905 136.116C157.032 135.113 156.601 133.669 156.601 131.783V123.145H154.133C153.892 123.145 153.682 123.055 153.501 122.875C153.321 122.694 153.23 122.483 153.23 122.243V121.179C153.23 120.938 153.321 120.728 153.501 120.547C153.682 120.367 153.892 120.276 154.133 120.276H156.601V114.839C156.601 114.598 156.691 114.388 156.872 114.207C157.052 114.027 157.263 113.936 157.504 113.936H158.738C158.978 113.936 159.189 114.027 159.37 114.207C159.55 114.388 159.641 114.598 159.641 114.839V120.276H163.874C164.115 120.276 164.325 120.367 164.506 120.547C164.686 120.728 164.777 120.938 164.777 121.179V122.243C164.777 122.483 164.686 122.694 164.506 122.875C164.325 123.055 164.115 123.145 163.874 123.145H159.641V131.783H159.63Z" fill="#00ABE7"/>
<path d="M184.579 132.214L188.311 121.079C188.381 120.898 188.502 120.728 188.682 120.547C188.863 120.366 189.114 120.276 189.445 120.276H190.548C190.769 120.276 190.96 120.356 191.12 120.507C191.271 120.667 191.351 120.848 191.351 121.069C191.351 121.159 191.341 121.249 191.321 121.34L186.215 136.678C186.124 136.949 186.004 137.17 185.864 137.34C185.723 137.521 185.502 137.611 185.211 137.611H184.178C183.887 137.611 183.677 137.521 183.526 137.33C183.386 137.139 183.255 136.929 183.145 136.678L179.182 125.613L175.21 136.678C175.099 136.919 174.969 137.139 174.829 137.33C174.688 137.521 174.467 137.611 174.177 137.611H173.143C172.852 137.611 172.642 137.521 172.491 137.34C172.351 137.16 172.23 136.939 172.14 136.678L167.034 121.34C167.014 121.249 167.004 121.159 167.004 121.069C167.004 120.848 167.084 120.657 167.235 120.507C167.385 120.356 167.576 120.276 167.806 120.276H168.91C169.241 120.276 169.502 120.366 169.672 120.547C169.853 120.728 169.973 120.898 170.043 121.079L173.775 132.214L177.778 121.079C177.848 120.898 177.948 120.728 178.099 120.547C178.239 120.366 178.48 120.276 178.811 120.276H179.544C179.875 120.276 180.115 120.366 180.256 120.547C180.396 120.728 180.507 120.898 180.577 121.079L184.579 132.214Z" fill="#00ABE7"/>
<path d="M193.026 127.279C193.116 126.255 193.357 125.302 193.758 124.41C194.16 123.517 194.681 122.744 195.323 122.072C195.965 121.41 196.738 120.888 197.641 120.507C198.544 120.126 199.547 119.946 200.66 119.946C201.864 119.946 202.927 120.136 203.88 120.527C204.823 120.919 205.626 121.48 206.298 122.213C206.97 122.945 207.472 123.838 207.833 124.881C208.184 125.924 208.365 127.088 208.365 128.382V129.285C208.365 129.526 208.274 129.736 208.094 129.917C207.913 130.098 207.702 130.188 207.462 130.188H195.995V130.389C196.036 131.903 196.497 133.057 197.38 133.87C198.253 134.682 199.356 135.083 200.66 135.083C201.884 135.083 202.797 134.913 203.409 134.572C204.021 134.231 204.512 133.839 204.894 133.418C205.074 133.238 205.225 133.117 205.365 133.047C205.506 132.977 205.696 132.947 205.967 132.947H206.97C207.211 132.947 207.442 133.037 207.632 133.217C207.833 133.398 207.913 133.609 207.863 133.849C207.793 134.251 207.612 134.692 207.291 135.164C206.98 135.645 206.529 136.087 205.937 136.498C205.345 136.909 204.613 137.25 203.74 137.531C202.857 137.812 201.834 137.952 200.66 137.952C199.547 137.952 198.544 137.762 197.661 137.371C196.768 136.979 195.996 136.448 195.343 135.766C194.691 135.083 194.16 134.291 193.758 133.368C193.357 132.445 193.116 131.442 193.026 130.348C192.916 129.325 192.916 128.302 193.026 127.279ZM195.995 127.379H205.365V127.279C205.365 125.924 204.934 124.841 204.081 124.028C203.228 123.216 202.085 122.815 200.66 122.815C200.018 122.815 199.416 122.925 198.865 123.136C198.313 123.346 197.821 123.647 197.4 124.038C196.979 124.43 196.648 124.901 196.397 125.453C196.156 126.005 196.016 126.617 195.995 127.289V127.389V127.379Z" fill="#00ABE7"/>
<path d="M211.063 127.279C211.153 126.255 211.394 125.302 211.795 124.41C212.197 123.517 212.718 122.744 213.36 122.072C214.002 121.41 214.775 120.888 215.678 120.507C216.58 120.126 217.584 119.946 218.697 119.946C219.901 119.946 220.964 120.136 221.917 120.527C222.86 120.919 223.663 121.48 224.335 122.213C225.007 122.945 225.509 123.838 225.87 124.881C226.221 125.924 226.401 127.088 226.401 128.382V129.285C226.401 129.526 226.311 129.736 226.131 129.917C225.95 130.098 225.739 130.188 225.499 130.188H214.032V130.389C214.072 131.903 214.534 133.057 215.417 133.87C216.289 134.682 217.393 135.083 218.697 135.083C219.921 135.083 220.834 134.913 221.446 134.572C222.058 134.231 222.549 133.839 222.931 133.418C223.111 133.238 223.262 133.117 223.402 133.047C223.542 132.977 223.733 132.947 224.004 132.947H225.007C225.248 132.947 225.479 133.037 225.669 133.217C225.87 133.398 225.95 133.609 225.9 133.849C225.83 134.251 225.649 134.692 225.328 135.164C225.017 135.645 224.566 136.087 223.974 136.498C223.382 136.909 222.65 137.25 221.777 137.531C220.894 137.812 219.871 137.952 218.697 137.952C217.584 137.952 216.58 137.762 215.698 137.371C214.805 136.979 214.032 136.448 213.38 135.766C212.728 135.083 212.197 134.291 211.795 133.368C211.394 132.445 211.153 131.442 211.063 130.348C210.953 129.325 210.953 128.302 211.063 127.279ZM214.032 127.379H223.402V127.279C223.402 125.924 222.971 124.841 222.118 124.028C221.265 123.216 220.122 122.815 218.697 122.815C218.055 122.815 217.453 122.925 216.901 123.136C216.35 123.346 215.858 123.647 215.437 124.038C215.015 124.43 214.684 124.901 214.434 125.453C214.193 126.005 214.052 126.617 214.032 127.289V127.389V127.379Z" fill="#00ABE7"/>
<path d="M245.061 136.708C245.061 136.949 244.97 137.16 244.79 137.34C244.609 137.521 244.398 137.611 244.158 137.611H242.924C242.683 137.611 242.472 137.521 242.292 137.34C242.111 137.16 242.021 136.949 242.021 136.708V127.91C242.021 126.195 241.61 124.921 240.787 124.078C239.964 123.236 238.821 122.814 237.356 122.814C235.892 122.814 234.828 123.236 233.976 124.078C233.123 124.921 232.691 126.205 232.691 127.91V136.708C232.691 136.949 232.601 137.16 232.421 137.34C232.24 137.521 232.029 137.611 231.789 137.611H230.555C230.314 137.611 230.103 137.521 229.923 137.34C229.742 137.16 229.652 136.949 229.652 136.708V121.169C229.652 120.928 229.742 120.718 229.923 120.537C230.103 120.357 230.314 120.266 230.555 120.266H231.789C232.029 120.266 232.24 120.357 232.421 120.537C232.601 120.718 232.691 120.928 232.691 121.169V122.202C233.113 121.651 233.745 121.129 234.577 120.647C235.41 120.166 236.504 119.935 237.858 119.935C238.901 119.935 239.864 120.106 240.757 120.457C241.65 120.798 242.412 121.29 243.044 121.922C243.676 122.553 244.168 123.336 244.529 124.269C244.88 125.202 245.061 126.245 245.061 127.399V136.698V136.708Z" fill="#00ABE7"/>
<path d="M117.156 158.006C117.247 156.982 117.487 156.029 117.889 155.137C118.29 154.244 118.811 153.471 119.453 152.799C120.096 152.137 120.868 151.616 121.771 151.234C122.674 150.853 123.677 150.673 124.79 150.673C125.994 150.673 127.057 150.863 128.011 151.254C128.953 151.646 129.756 152.207 130.428 152.94C131.1 153.672 131.602 154.565 131.963 155.608C132.314 156.651 132.495 157.815 132.495 159.109V160.012C132.495 160.253 132.404 160.463 132.224 160.644C132.043 160.825 131.833 160.915 131.592 160.915H120.126V161.116C120.166 162.63 120.627 163.784 121.51 164.597C122.383 165.409 123.486 165.81 124.79 165.81C126.014 165.81 126.927 165.64 127.539 165.299C128.151 164.958 128.643 164.566 129.024 164.145C129.204 163.965 129.355 163.844 129.495 163.774C129.636 163.704 129.826 163.674 130.097 163.674H131.1C131.341 163.674 131.572 163.764 131.762 163.944C131.963 164.125 132.043 164.336 131.993 164.576C131.923 164.978 131.742 165.419 131.421 165.891C131.11 166.372 130.659 166.814 130.067 167.225C129.475 167.636 128.743 167.977 127.87 168.258C126.987 168.539 125.964 168.679 124.79 168.679C123.677 168.679 122.674 168.489 121.791 168.098C120.898 167.706 120.126 167.175 119.474 166.493C118.822 165.81 118.29 165.018 117.889 164.095C117.487 163.172 117.247 162.169 117.156 161.075C117.046 160.052 117.046 159.029 117.156 158.006ZM120.126 158.106H129.495V158.006C129.495 156.651 129.064 155.568 128.211 154.755C127.358 153.943 126.215 153.542 124.79 153.542C124.148 153.542 123.546 153.652 122.995 153.863C122.443 154.073 121.951 154.374 121.53 154.765C121.109 155.157 120.778 155.628 120.527 156.18C120.286 156.732 120.146 157.344 120.126 158.016V158.116V158.106Z" fill="#00ABE7"/>
<path d="M142.005 161.808L137.3 167.706C137.21 167.817 137.079 167.947 136.919 168.108C136.748 168.268 136.527 168.338 136.237 168.338H134.702C134.481 168.338 134.29 168.258 134.14 168.108C133.979 167.957 133.909 167.777 133.909 167.576C133.909 167.395 133.949 167.245 134.04 167.105L140.139 159.47L134.371 152.238C134.28 152.107 134.24 151.947 134.24 151.766C134.24 151.565 134.32 151.385 134.471 151.234C134.621 151.084 134.812 151.004 135.033 151.004H136.638C136.929 151.004 137.149 151.084 137.32 151.234C137.491 151.395 137.611 151.525 137.701 151.636L142.135 157.203L146.539 151.636C146.629 151.525 146.76 151.395 146.92 151.234C147.091 151.084 147.312 151.004 147.602 151.004H149.137C149.358 151.004 149.549 151.084 149.699 151.234C149.85 151.395 149.93 151.565 149.93 151.766C149.93 151.947 149.89 152.097 149.799 152.238L144.001 159.541L150.04 167.105C150.13 167.235 150.171 167.395 150.171 167.576C150.171 167.777 150.09 167.957 149.94 168.108C149.779 168.268 149.599 168.338 149.368 168.338H147.763C147.472 168.338 147.251 168.258 147.081 168.108C146.91 167.957 146.79 167.817 146.7 167.706L141.995 161.808H142.005Z" fill="#00ABE7"/>
<path d="M154.374 160.844C154.464 161.737 154.655 162.49 154.956 163.112C155.257 163.734 155.618 164.245 156.059 164.646C156.491 165.048 156.972 165.339 157.514 165.529C158.045 165.72 158.587 165.81 159.149 165.81C160.212 165.81 161.125 165.609 161.888 165.208C162.64 164.807 163.232 164.145 163.653 163.212C163.804 162.861 163.974 162.62 164.135 162.5C164.305 162.379 164.506 162.319 164.747 162.319H165.75C165.991 162.319 166.211 162.409 166.402 162.59C166.592 162.771 166.673 162.981 166.653 163.222C166.633 163.754 166.462 164.335 166.141 164.967C165.82 165.599 165.339 166.191 164.707 166.733C164.075 167.275 163.292 167.736 162.369 168.117C161.446 168.499 160.373 168.679 159.149 168.679C157.925 168.679 156.842 168.479 155.899 168.077C154.956 167.676 154.153 167.134 153.501 166.442C152.849 165.75 152.337 164.937 151.966 164.004C151.595 163.071 151.394 162.068 151.354 161.005C151.334 160.654 151.314 160.212 151.304 159.691C151.294 159.169 151.304 158.718 151.354 158.337C151.445 157.273 151.675 156.27 152.036 155.337C152.398 154.404 152.909 153.592 153.551 152.899C154.193 152.207 154.986 151.665 155.919 151.264C156.852 150.863 157.935 150.662 159.149 150.662C160.363 150.662 161.446 150.853 162.369 151.224C163.292 151.605 164.075 152.067 164.707 152.608C165.339 153.15 165.82 153.742 166.141 154.374C166.462 155.006 166.633 155.588 166.653 156.119C166.673 156.36 166.592 156.571 166.402 156.751C166.211 156.932 166.001 157.022 165.75 157.022H164.747C164.506 157.022 164.295 156.962 164.135 156.842C163.964 156.721 163.804 156.481 163.653 156.13C163.232 155.197 162.64 154.524 161.888 154.133C161.135 153.732 160.222 153.531 159.149 153.531C158.597 153.531 158.045 153.622 157.494 153.812C156.952 154.003 156.46 154.294 156.029 154.695C155.598 155.096 155.227 155.608 154.926 156.23C154.625 156.852 154.444 157.604 154.374 158.497C154.304 159.32 154.304 160.102 154.374 160.834V160.844Z" fill="#00ABE7"/>
<path d="M185.302 167.446C185.302 167.686 185.211 167.897 185.031 168.078C184.85 168.258 184.639 168.348 184.399 168.348H183.165C182.924 168.348 182.713 168.258 182.533 168.078C182.352 167.897 182.262 167.686 182.262 167.446V158.648C182.262 156.932 181.851 155.658 181.028 154.816C180.205 153.973 179.062 153.552 177.597 153.552C176.133 153.552 175.069 153.973 174.217 154.816C173.364 155.658 172.932 156.942 172.932 158.648V167.446C172.932 167.686 172.842 167.897 172.662 168.078C172.481 168.258 172.27 168.348 172.03 168.348H170.796C170.555 168.348 170.344 168.258 170.164 168.078C169.983 167.897 169.893 167.686 169.893 167.446V145.576C169.893 145.336 169.983 145.125 170.164 144.944C170.344 144.764 170.555 144.674 170.796 144.674H172.03C172.27 144.674 172.481 144.764 172.662 144.944C172.842 145.125 172.932 145.336 172.932 145.576V152.94C173.354 152.388 173.986 151.866 174.818 151.385C175.651 150.903 176.745 150.673 178.099 150.673C179.142 150.673 180.105 150.843 180.998 151.194C181.891 151.535 182.653 152.027 183.285 152.659C183.917 153.291 184.409 154.073 184.77 155.006C185.121 155.939 185.302 156.983 185.302 158.136V167.436V167.446Z" fill="#00ABE7"/>
<path d="M188.08 163.974C188.08 163.082 188.261 162.309 188.612 161.637C188.963 160.965 189.455 160.403 190.077 159.942C190.699 159.47 191.431 159.099 192.264 158.808C193.096 158.517 193.979 158.296 194.912 158.146L199.617 157.384V156.952C199.617 155.819 199.246 154.966 198.503 154.404C197.761 153.842 196.828 153.551 195.724 153.551C194.741 153.551 194.009 153.732 193.508 154.083C193.006 154.434 192.575 154.866 192.223 155.347C192.093 155.528 191.943 155.648 191.792 155.718C191.632 155.788 191.421 155.819 191.16 155.819H190.157C189.916 155.819 189.695 155.728 189.505 155.548C189.314 155.367 189.234 155.156 189.254 154.916C189.294 154.424 189.495 153.923 189.836 153.411C190.177 152.899 190.648 152.448 191.24 152.047C191.832 151.645 192.504 151.314 193.277 151.064C194.039 150.813 194.862 150.682 195.724 150.682C196.728 150.682 197.651 150.823 198.503 151.114C199.356 151.405 200.088 151.826 200.7 152.378C201.312 152.929 201.794 153.622 202.135 154.444C202.476 155.267 202.646 156.21 202.646 157.273V167.445C202.646 167.686 202.556 167.897 202.376 168.077C202.195 168.258 201.984 168.348 201.744 168.348H200.51C200.269 168.348 200.058 168.258 199.878 168.077C199.697 167.897 199.607 167.686 199.607 167.445V166.081C199.406 166.502 199.095 166.874 198.674 167.195C198.252 167.516 197.771 167.786 197.219 168.007C196.678 168.228 196.106 168.398 195.514 168.509C194.922 168.619 194.37 168.679 193.869 168.679C193.006 168.679 192.203 168.559 191.481 168.308C190.759 168.067 190.147 167.736 189.645 167.325C189.144 166.914 188.752 166.422 188.482 165.84C188.201 165.258 188.06 164.636 188.06 163.974H188.08ZM194.22 165.81C195.022 165.81 195.755 165.69 196.417 165.439C197.079 165.198 197.661 164.857 198.132 164.426C198.614 163.994 198.975 163.473 199.236 162.871C199.486 162.269 199.617 161.607 199.617 160.875V160.042L195.684 160.674C194.28 160.895 193.176 161.256 192.354 161.737C191.531 162.229 191.12 162.861 191.12 163.633C191.12 163.874 191.17 164.125 191.29 164.366C191.401 164.606 191.581 164.847 191.822 165.068C192.063 165.288 192.384 165.469 192.775 165.599C193.166 165.73 193.648 165.8 194.23 165.8L194.22 165.81Z" fill="#00ABE7"/>
<path d="M222.118 167.446C222.118 167.686 222.028 167.897 221.847 168.078C221.667 168.258 221.456 168.348 221.215 168.348H219.981C219.74 168.348 219.53 168.258 219.349 168.078C219.169 167.897 219.078 167.686 219.078 167.446V158.648C219.078 156.932 218.667 155.658 217.844 154.816C217.022 153.973 215.878 153.552 214.414 153.552C212.949 153.552 211.886 153.973 211.033 154.816C210.18 155.658 209.749 156.942 209.749 158.648V167.446C209.749 167.686 209.659 167.897 209.478 168.078C209.297 168.258 209.087 168.348 208.846 168.348H207.612C207.371 168.348 207.161 168.258 206.98 168.078C206.8 167.897 206.709 167.686 206.709 167.446V151.906C206.709 151.666 206.8 151.455 206.98 151.274C207.161 151.094 207.371 151.004 207.612 151.004H208.846C209.087 151.004 209.297 151.094 209.478 151.274C209.659 151.455 209.749 151.666 209.749 151.906V152.94C210.17 152.388 210.802 151.866 211.635 151.385C212.467 150.903 213.561 150.673 214.915 150.673C215.958 150.673 216.922 150.843 217.814 151.194C218.707 151.535 219.47 152.027 220.102 152.659C220.734 153.291 221.225 154.073 221.586 155.006C221.937 155.939 222.118 156.982 222.118 158.136V167.435V167.446Z" fill="#00ABE7"/>
<path d="M225.308 158.577C225.378 157.354 225.609 156.26 226.01 155.277C226.411 154.304 226.943 153.471 227.615 152.789C228.277 152.107 229.07 151.585 229.963 151.224C230.865 150.853 231.839 150.673 232.882 150.673C234.256 150.673 235.36 150.913 236.182 151.385C237.005 151.866 237.627 152.378 238.048 152.94V151.906C238.048 151.666 238.138 151.455 238.319 151.274C238.5 151.094 238.71 151.004 238.951 151.004H240.185C240.426 151.004 240.636 151.094 240.817 151.274C240.998 151.455 241.088 151.666 241.088 151.906V168.108C241.088 170.415 240.436 172.261 239.122 173.625C237.807 174.989 235.841 175.672 233.223 175.672C231.889 175.672 230.745 175.511 229.802 175.19C228.859 174.869 228.077 174.468 227.465 173.976C226.853 173.485 226.401 172.963 226.1 172.381C225.799 171.809 225.639 171.258 225.619 170.726C225.599 170.485 225.679 170.274 225.87 170.094C226.06 169.913 226.271 169.833 226.522 169.833H227.525C227.766 169.833 227.976 169.893 228.137 170.014C228.297 170.134 228.468 170.375 228.618 170.726C228.689 170.856 228.789 171.037 228.939 171.268C229.08 171.498 229.321 171.729 229.642 171.96C229.963 172.191 230.384 172.391 230.906 172.552C231.427 172.712 232.089 172.802 232.892 172.802C233.624 172.802 234.306 172.732 234.938 172.582C235.57 172.441 236.122 172.201 236.584 171.87C237.055 171.538 237.416 171.087 237.667 170.535C237.918 169.984 238.048 169.301 238.048 168.499V166.402C237.607 167.004 236.975 167.526 236.152 167.987C235.33 168.439 234.236 168.669 232.882 168.669C231.839 168.669 230.865 168.489 229.963 168.118C229.06 167.746 228.277 167.225 227.615 166.553C226.953 165.871 226.411 165.048 226.01 164.065C225.609 163.092 225.378 161.988 225.308 160.764C225.288 160.433 225.278 160.062 225.278 159.661C225.278 159.26 225.288 158.899 225.308 158.557V158.577ZM238.048 158.477C237.978 156.902 237.506 155.678 236.634 154.826C235.751 153.973 234.617 153.542 233.213 153.542C231.809 153.542 230.595 154.013 229.742 154.946C228.889 155.879 228.428 157.143 228.337 158.748C228.317 159.37 228.317 159.992 228.337 160.614C228.428 162.219 228.889 163.483 229.742 164.416C230.595 165.349 231.738 165.82 233.213 165.82C234.688 165.82 235.751 165.389 236.634 164.516C237.506 163.654 237.988 162.44 238.048 160.885C238.068 160.554 238.078 160.152 238.078 159.681C238.078 159.21 238.068 158.818 238.048 158.477Z" fill="#00ABE7"/>
<path d="M244.479 158.006C244.569 156.982 244.81 156.029 245.211 155.137C245.612 154.244 246.134 153.471 246.776 152.799C247.418 152.137 248.19 151.616 249.093 151.234C249.996 150.853 250.999 150.673 252.113 150.673C253.317 150.673 254.38 150.863 255.333 151.254C256.276 151.646 257.079 152.207 257.751 152.94C258.423 153.672 258.924 154.565 259.286 155.608C259.637 156.651 259.817 157.815 259.817 159.109V160.012C259.817 160.253 259.727 160.463 259.546 160.644C259.366 160.825 259.155 160.915 258.914 160.915H247.448V161.116C247.488 162.63 247.95 163.784 248.832 164.597C249.705 165.409 250.809 165.81 252.113 165.81C253.337 165.81 254.25 165.64 254.862 165.299C255.473 164.958 255.965 164.566 256.346 164.145C256.527 163.965 256.677 163.844 256.818 163.774C256.958 163.704 257.149 163.674 257.42 163.674H258.423C258.664 163.674 258.894 163.764 259.085 163.944C259.286 164.125 259.366 164.336 259.316 164.576C259.245 164.978 259.065 165.419 258.744 165.891C258.433 166.372 257.981 166.814 257.39 167.225C256.798 167.636 256.065 167.977 255.193 168.258C254.31 168.539 253.287 168.679 252.113 168.679C250.999 168.679 249.996 168.489 249.113 168.098C248.221 167.706 247.448 167.175 246.796 166.493C246.144 165.81 245.612 165.018 245.211 164.095C244.81 163.172 244.569 162.169 244.479 161.075C244.368 160.052 244.368 159.029 244.479 158.006ZM247.448 158.106H256.818V158.006C256.818 156.651 256.386 155.568 255.534 154.755C254.681 153.943 253.537 153.542 252.113 153.542C251.471 153.542 250.869 153.652 250.317 153.863C249.765 154.073 249.274 154.374 248.853 154.765C248.431 155.157 248.1 155.628 247.849 156.18C247.609 156.732 247.468 157.344 247.448 158.016V158.116V158.106Z" fill="#00ABE7"/>
<path d="M54.4078 143.189L29.0477 179.414C27.3925 178.089 26.3391 176.063 26.3391 173.786V112.582C26.3391 110.305 27.3925 108.279 29.0477 106.965L54.4078 143.189Z" fill="#00ABE7"/>
<path d="M101.948 112.582V173.786C101.948 177.758 98.718 180.988 94.7454 180.988H48.6898L64.7807 158.016L70.1677 165.7C71.3515 167.375 73.2775 168.389 75.334 168.389H90.0205C91.2042 168.389 91.8864 167.064 91.2142 166.101L75.1635 143.189L91.2142 120.267C91.8864 119.303 91.2042 117.979 90.0205 117.979H75.334C73.2775 117.979 71.3414 118.982 70.1778 120.658L64.7807 128.362L48.6898 105.379H94.7454C98.718 105.379 101.948 108.61 101.948 112.582Z" fill="#00ABE7"/>
</svg>
