<svg  viewBox="0 0 201 201" fill="none" xmlns="http://www.w3.org/2000/svg">
<path d="M15.9406 83.8593H18.8799V103.862H15.9406V83.8593ZM15.9406 83.8593H22.6217C25.2801 83.8593 27.8282 84.9125 29.7041 86.7884C31.58 88.6644 32.6434 91.2125 32.6434 93.8608C32.6434 96.5092 31.59 99.0572 29.7041 100.933C27.8282 102.809 25.2801 103.862 22.6217 103.862H15.9406V100.933H22.6217C24.4976 100.933 26.3033 100.191 27.6275 98.8666C28.9517 97.5425 29.7041 95.7468 29.7041 93.8709C29.7041 91.9949 28.9617 90.1993 27.6275 88.8751C26.3033 87.5509 24.4976 86.8085 22.6217 86.8085H15.9406V83.8792V83.8593ZM46.9285 83.8593H49.8678V103.862H46.9285V83.8593ZM73.9138 92.3962H83.9355V93.8608L82.4708 95.3254H73.9239V92.3862L73.9138 92.3962ZM98.2206 83.8593H101.16V103.862H98.2206V83.8593ZM115.586 83.8593H128.406V86.7884H123.46V103.862H120.521V86.7884H115.575V83.8593H115.586ZM142.571 103.862L150.717 83.8593L158.862 103.862H155.652L150.707 91.3228L145.761 103.862H142.551H142.571ZM145.38 99.3281H156.064V102.267H145.38V99.3281ZM173.027 83.8593H175.966V100.933H184.253V103.862H173.027V83.8593Z" fill="#1D1D1B"/>
<path d="M83.9356 93.8607C83.9356 96.5091 82.8823 99.0571 81.0063 100.933C79.1304 102.809 76.5824 103.862 73.924 103.862C71.2655 103.862 68.7175 102.809 66.8416 100.933C64.9656 99.0571 63.9022 96.5091 63.9022 93.8607C63.9022 91.2123 64.9556 88.6642 66.8416 86.7883C68.7175 84.9124 71.2655 83.8591 73.924 83.8591C76.5824 83.8591 79.1304 84.9124 81.0063 86.7883C82.8823 88.6642 83.9356 91.2123 83.9356 93.8607H80.9963C80.9963 91.9848 80.2539 90.1891 78.9197 88.8649C77.5955 87.5408 75.7898 86.7984 73.9139 86.7984C72.038 86.7984 70.2323 87.5408 68.9081 88.8649C67.5839 90.1891 66.8315 91.9848 66.8315 93.8607C66.8315 95.7366 67.5739 97.5323 68.9081 98.8565C70.2323 100.181 72.038 100.923 73.9139 100.923C75.7898 100.923 77.5955 100.181 78.9197 98.8565C80.2439 97.5323 80.9963 95.7366 80.9963 93.8607H83.9356Z" fill="#1D1D1B"/>
<path d="M115.465 109.731H118.404C119.006 109.731 119.588 109.972 120.009 110.393C120.431 110.814 120.672 111.396 120.672 111.998C120.672 112.6 120.431 113.172 120.009 113.603C119.588 114.025 119.006 114.265 118.404 114.265H115.465V113.062H118.404C118.685 113.062 118.956 112.951 119.157 112.751C119.357 112.55 119.468 112.279 119.468 111.998C119.468 111.717 119.357 111.446 119.157 111.246C118.956 111.045 118.685 110.935 118.404 110.935H115.465V109.731ZM115.465 113.062H118.535C119.177 113.062 119.779 113.312 120.23 113.764C120.682 114.215 120.932 114.827 120.932 115.459C120.932 116.091 120.682 116.703 120.23 117.154C119.779 117.606 119.167 117.857 118.535 117.857H115.465V116.653H118.535C118.856 116.653 119.157 116.522 119.388 116.302C119.608 116.081 119.739 115.77 119.739 115.449C119.739 115.128 119.608 114.827 119.388 114.596C119.167 114.376 118.856 114.245 118.535 114.245H115.465V113.041V113.062ZM115.465 109.731H116.669V117.867H115.465V109.731ZM127.624 109.731V115.068C127.624 115.81 127.914 116.522 128.446 117.044C128.968 117.566 129.69 117.867 130.432 117.867C131.175 117.867 131.887 117.576 132.419 117.044C132.94 116.522 133.241 115.81 133.241 115.068V109.731H132.037V115.068C132.037 115.489 131.867 115.901 131.566 116.201C131.265 116.502 130.854 116.673 130.432 116.673C130.011 116.673 129.6 116.502 129.299 116.201C128.998 115.901 128.827 115.489 128.827 115.068V109.731H127.624ZM139.641 109.731H142.31C143.393 109.731 144.427 110.162 145.189 110.925C145.951 111.687 146.383 112.72 146.383 113.804C146.383 114.887 145.951 115.921 145.189 116.683C144.427 117.445 143.393 117.877 142.31 117.877H139.641V116.673H142.31C143.072 116.673 143.805 116.372 144.336 115.83C144.878 115.289 145.179 114.566 145.179 113.804C145.179 113.041 144.878 112.309 144.336 111.777C143.795 111.236 143.062 110.935 142.31 110.935H139.641V109.731ZM139.641 109.731H140.845V117.867H139.641V109.731ZM156.876 113.202H160.949V113.804L160.347 114.406H156.876V113.202ZM167.56 109.731H172.235V110.935H168.764V113.473H171.833V114.677H168.764V116.673H172.365V117.877H167.56V109.741V109.731ZM178.916 109.731H184.122V110.935H182.116V117.867H180.912V110.935H178.906V109.731H178.916Z" fill="#1D1D1B"/>
<path d="M152.793 113.804C152.793 112.72 153.225 111.687 153.987 110.925C154.749 110.162 155.783 109.731 156.866 109.731C157.95 109.731 158.983 110.162 159.745 110.925C160.508 111.687 160.939 112.72 160.939 113.804C160.939 114.887 160.508 115.921 159.745 116.683C158.983 117.445 157.95 117.877 156.866 117.877C155.783 117.877 154.749 117.445 153.987 116.683C153.225 115.921 152.793 114.887 152.793 113.804H153.997C153.997 114.566 154.298 115.299 154.84 115.83C155.381 116.372 156.104 116.673 156.866 116.673C157.628 116.673 158.361 116.372 158.892 115.83C159.434 115.289 159.735 114.566 159.735 113.804C159.735 113.041 159.434 112.309 158.892 111.777C158.351 111.236 157.628 110.935 156.866 110.935C156.104 110.935 155.371 111.236 154.84 111.777C154.298 112.319 153.997 113.041 153.997 113.804H152.793Z" fill="#1D1D1B"/>
<path d="M15.9406 110.273H110.78V110.804H15.9406V110.273Z" fill="#AA3524"/>
<path d="M42.655 116.803H110.78V117.335H42.655V116.803Z" fill="#3A2884"/>
</svg>
