<svg  viewBox="0 0 201 201" fill="none" xmlns="http://www.w3.org/2000/svg">
<path d="M73.9541 66.2641H79.8528V50.3638C79.8528 49.6917 79.8527 49.0496 79.7825 48.4076H74.0344V66.2641H73.9641H73.9541Z" fill="#E25C10"/>
<path d="M90.045 50.7049C89.6739 52.2096 89.3328 53.604 89.0318 54.9182C88.7309 56.2323 88.5403 57.3659 88.3898 58.339H88.3196C88.2093 57.3659 87.9785 56.2324 87.6776 54.8781C87.3766 53.564 87.0055 52.1695 86.6243 50.6647C86.2431 49.16 86.2129 49.16 86.0223 48.4076H80.2742C80.4949 49.3506 80.7958 50.404 81.1369 51.6379C81.5081 52.9922 81.8893 54.4166 82.3407 55.9615C82.7921 57.5064 83.2034 59.0413 83.6549 60.6263C84.1063 62.2113 84.5577 63.676 84.969 65.0603H91.59C92.0013 63.6659 92.4125 62.2013 92.864 60.6664C93.3154 59.1216 93.7668 57.5866 94.1781 56.0417C94.6295 54.4968 95.0007 53.0724 95.3819 51.7181C95.723 50.4742 96.0239 49.3908 96.2446 48.4879H90.6068C90.4162 49.2403 90.1955 49.9927 90.0049 50.7451L90.045 50.7049Z" fill="#E25C10"/>
<path d="M96.7361 50.3638V66.2641H102.565V48.4076H96.8866C96.8866 49.0496 96.8164 49.6817 96.7763 50.3638H96.7361Z" fill="#E25C10"/>
<path d="M119.97 49.5412C120.341 50.5143 120.531 51.989 120.531 53.9752C120.531 55.9615 120.341 57.6267 119.97 58.67C119.598 59.7133 118.996 60.3955 118.124 60.7366C117.251 61.0777 116.097 61.2281 114.593 61.2281H110.941V48.4478H104.741V66.4948H115.495C117.642 66.4948 119.438 66.3042 120.872 65.9731C122.307 65.6421 123.471 65 124.374 64.0972C125.236 63.1943 125.878 61.9203 126.29 60.3052C126.661 58.6901 126.851 56.5835 126.851 54.0254C126.851 51.4674 126.701 49.9626 126.36 48.4578H119.328C119.588 48.7587 119.819 49.1299 120 49.5512H119.96L119.97 49.5412Z" fill="#385E89"/>
<path d="M110.951 75.5133H114.602C116.107 75.5133 117.271 75.6638 118.134 75.9648C118.996 76.2657 119.638 76.9077 119.979 77.8808C120.351 78.8538 120.541 80.3285 120.541 82.3148C120.541 84.3011 120.351 85.9663 119.979 87.0096C119.608 88.0529 119.528 87.9526 119.227 88.2836H126.299C126.641 86.7087 126.821 84.7124 126.821 82.3048C126.821 79.8972 126.631 77.8306 126.259 76.2857C125.888 74.7108 125.246 73.507 124.343 72.6342C123.481 71.7715 122.317 71.1295 120.842 70.7884C119.368 70.4473 117.612 70.2667 115.465 70.2667H104.711V88.3138H110.911V75.4932H110.951V75.5133Z" fill="#385E89"/>
<path d="M102.304 70.2869H73.8838V88.3339H102.304V70.2869Z" fill="#A1BFD1"/>
<path d="M30.9883 121.799C30.9883 117.857 30.9883 113.794 31.1388 111.496H31.0284C30.0854 115.148 26.8552 124.016 24.4476 130.777H21.6287C19.823 125.18 16.4824 115.248 15.4993 111.456H15.389C15.5395 113.934 15.6498 118.679 15.6498 122.361V130.777H12.6804V109.239H17.4555C19.7528 115.74 22.5316 124.056 23.2438 126.905C23.7655 124.688 27.0759 115.589 29.4434 109.239H34.068V130.777H30.9482V121.789H30.9883V121.799Z" fill="#385E89"/>
<path d="M53.5798 120.816H42.9361V128.039H54.623L54.2118 130.748H39.7761V109.209H54.0613V111.918H42.9361V118.118H53.5798V120.826V120.816Z" fill="#385E89"/>
<path d="M58.4351 109.199H66.2899C72.3792 109.199 76.4822 113.332 76.4822 119.762C76.4822 126.193 72.4995 130.777 66.1796 130.777H58.4351V109.239V109.199ZM61.6352 128.069H65.9588C70.8443 128.069 73.1416 124.538 73.1416 119.803C73.1416 115.068 71.0349 111.867 65.9588 111.867H61.6352V128.069Z" fill="#385E89"/>
<path d="M84.0661 109.199V130.737H80.866V109.199H84.0661Z" fill="#385E89"/>
<path d="M92.864 124.578L90.6871 130.748H87.5271L95.1211 109.209H99.0636L106.999 130.748H103.618L101.361 124.578H92.864ZM100.568 121.869C98.6121 116.422 97.5187 113.413 97.0372 111.717C96.5156 113.593 95.2716 117.205 93.6866 121.869H100.568Z" fill="#385E89"/>
<path d="M110.269 109.199H118.124C124.213 109.199 128.316 113.332 128.316 119.762C128.316 126.193 124.333 130.777 118.013 130.777H110.269V109.239V109.199ZM113.469 128.069H117.793C122.678 128.069 124.975 124.538 124.975 119.803C124.975 115.068 122.869 111.867 117.793 111.867H113.469V128.069Z" fill="#385E89"/>
<path d="M146.514 120.816H135.87V128.039H147.557L147.146 130.748H132.71V109.209H146.995V111.918H135.87V118.118H146.514V120.826V120.816Z" fill="#385E89"/>
<path d="M153.285 124.688C153.847 127.206 155.582 128.52 158.582 128.52C161.581 128.52 163.056 127.056 163.056 125.1C163.056 123.143 162.002 121.899 157.789 120.886C152.563 119.612 150.867 117.806 150.867 114.797C150.867 111.787 153.315 108.898 158.16 108.898C163.006 108.898 165.564 111.868 165.824 114.767H162.594C162.253 112.961 161.13 111.416 158.05 111.416C154.97 111.416 154.138 112.51 154.138 114.466C154.138 116.422 155.301 117.134 159.023 118.037C165.192 119.542 166.316 121.909 166.316 124.728C166.316 127.547 163.648 131.008 158.311 131.008C152.974 131.008 150.456 128.109 149.964 124.658H153.275V124.698L153.285 124.688Z" fill="#385E89"/>
<path d="M170.419 109.199H173.579V119.572C175.154 117.917 180.421 112.62 183.691 109.199H187.633L178.494 118.258L188.085 130.737H184.213L176.247 120.324L173.579 122.772V130.737H170.419V109.199Z" fill="#385E89"/>
</svg>
