<svg  viewBox="0 0 201 201" fill="none" xmlns="http://www.w3.org/2000/svg">
<path d="M22.4655 99.5191L29.7486 91.1125H31.464V110.624H26.6487V101.626L22.7264 105.979H22.1645L18.2523 101.646V110.644H13.437V91.1326H15.1524L22.4655 99.5292V99.5191Z" fill="#419FD8"/>
<path d="M53.975 100.873C54.0252 102.168 53.8146 103.452 53.3432 104.655C52.8717 105.859 52.1593 106.963 51.2464 107.886C50.3235 108.799 49.2201 109.511 48.0062 109.982C46.7924 110.454 45.4882 110.664 44.174 110.614C42.9301 110.614 41.6963 110.404 40.5226 109.992C39.389 109.591 38.3356 108.979 37.4328 108.197C36.4797 107.344 35.7375 106.301 35.266 105.117C34.7143 103.763 34.4433 102.318 34.4634 100.863C34.4233 98.9674 34.9248 97.1016 35.928 95.4865C36.7907 94.0619 38.0448 92.8982 39.5596 92.1559C41.0343 91.4436 42.6493 91.0825 44.2945 91.1026C45.5084 91.1026 46.7223 91.3233 47.8659 91.7446C48.9995 92.1559 50.0526 92.7678 50.9555 93.5503C51.9185 94.403 52.6711 95.4564 53.1627 96.6301C53.7244 97.9743 54.0051 99.4189 53.9851 100.873H53.975ZM39.4893 100.873C39.4492 101.566 39.5496 102.248 39.8004 102.89C40.0411 103.532 40.4224 104.124 40.9039 104.625C41.7968 105.498 43.0104 105.98 44.2644 105.98C45.5184 105.98 46.7323 105.488 47.6251 104.625C48.1167 104.134 48.4877 103.542 48.7385 102.9C48.9793 102.258 49.0897 101.566 49.0496 100.873C49.0897 100.181 48.9893 99.4991 48.7385 98.847C48.4978 98.205 48.1167 97.6132 47.6251 97.1216C47.1938 96.6903 46.6821 96.3391 46.1103 96.1084C45.5385 95.8777 44.9266 95.7573 44.3146 95.7573C43.6826 95.7473 43.0606 95.8576 42.4687 96.0883C41.8768 96.3191 41.3453 96.6601 40.8939 97.0915C40.4023 97.5831 40.011 98.1849 39.7602 98.827C39.5094 99.479 39.399 100.171 39.4391 100.863H39.4793L39.4893 100.873Z" fill="#419FD8"/>
<path d="M69.0026 91.1125V95.5165H61.9204V98.3052H68.2502V102.8H61.9204V105.979H69.0026V110.634H56.9846V91.1125H69.0026Z" fill="#419FD8"/>
<path d="M111.818 101.896H111.908L113.543 96.8404L115.991 91.1023H121.569V91.8547L112.941 110.624H110.775L102.047 91.8547V91.1023H107.625L110.143 96.8404L111.828 101.896H111.818Z" fill="#419FD8"/>
<path d="M129.073 110.624H124.568V91.1023H129.073V110.624Z" fill="#419FD8"/>
<path d="M132.072 91.1123H139.937C141.903 91.0722 143.849 91.5637 145.524 92.5468C147.019 93.4095 148.213 94.6535 148.996 96.1382C149.738 97.5828 150.109 99.1678 150.099 100.763C150.119 101.987 149.919 103.211 149.497 104.374C149.086 105.528 148.454 106.601 147.631 107.534C146.768 108.507 145.675 109.28 144.441 109.791C143.037 110.363 141.512 110.644 139.987 110.624H132.122L132.092 91.1023L132.072 91.1123ZM137.459 106.029H139.857C140.539 106.07 141.211 105.949 141.833 105.688C142.455 105.428 142.997 105.026 143.418 104.525C144.271 103.481 144.712 102.187 144.682 100.873C144.712 99.569 144.261 98.2951 143.408 97.2718C142.987 96.7702 142.445 96.379 141.823 96.1181C141.201 95.8573 140.529 95.737 139.857 95.7671H137.459V106.029Z" fill="#419FD8"/>
<path d="M165.106 91.1023V95.5463H158.034V98.3351H164.364V102.789H158.034V105.969H165.106V110.624H153.088V91.1023H165.106Z" fill="#419FD8"/>
<path d="M187.627 100.873C187.678 102.167 187.457 103.451 186.995 104.665C186.524 105.869 185.812 106.973 184.899 107.906C183.976 108.818 182.882 109.521 181.669 109.992C180.455 110.464 179.161 110.674 177.856 110.634C176.613 110.634 175.369 110.434 174.195 110.022C173.061 109.621 172.008 109.009 171.095 108.216C170.132 107.374 169.39 106.321 168.918 105.147C168.367 103.793 168.096 102.348 168.116 100.883C168.066 98.9974 168.567 97.1315 169.56 95.5164C170.423 94.0919 171.687 92.9382 173.182 92.1858C174.656 91.4736 176.282 91.1125 177.927 91.1225C179.151 91.1225 180.355 91.3332 181.498 91.7545C182.632 92.1658 183.685 92.7877 184.598 93.5702C185.561 94.4229 186.313 95.4662 186.805 96.64C187.367 97.9842 187.647 99.4288 187.627 100.883V100.873ZM173.122 100.873C173.081 101.565 173.182 102.248 173.423 102.9C173.663 103.542 174.045 104.134 174.526 104.635C175.419 105.508 176.633 105.989 177.887 105.989C179.141 105.989 180.355 105.498 181.247 104.635C181.739 104.144 182.12 103.552 182.361 102.9C182.601 102.258 182.712 101.565 182.672 100.873C182.712 100.181 182.601 99.4989 182.361 98.8469C182.12 98.2049 181.739 97.613 181.257 97.1114C180.826 96.6801 180.304 96.339 179.733 96.1082C179.161 95.8775 178.549 95.7572 177.937 95.7672C177.305 95.7572 176.683 95.8675 176.091 96.0982C175.499 96.3289 174.968 96.67 174.516 97.1014C174.015 97.5929 173.633 98.1848 173.382 98.8368C173.132 99.4889 173.031 100.181 173.072 100.873H173.101H173.122Z" fill="#419FD8"/>
<path d="M73.286 88.7849C72.5638 88.8251 72.0022 89.417 72.0022 90.1393V111.607C72.0022 112.329 72.5638 112.921 73.286 112.961L97.6029 114.316C98.3753 114.356 99.0376 113.744 99.0376 112.961V88.795C99.0376 88.0125 98.3854 87.4006 97.6029 87.4407L73.286 88.795V88.7849ZM95.2858 109.209C95.2858 109.972 94.6335 110.574 93.8711 110.524L76.9779 109.22C76.2957 109.169 75.7641 108.598 75.7641 107.905V93.8209C75.7641 93.1387 76.2957 92.567 76.9779 92.5068L93.8711 91.2026C94.6335 91.1424 95.2858 91.7444 95.2858 92.5168V109.2V109.209Z" fill="#419FD8"/>
<path d="M89.086 100.241C89.5274 100.542 89.5274 101.194 89.086 101.495L82.1843 106.1C81.6828 106.431 81.0208 106.079 81.0208 105.478V96.2685C81.0208 95.6666 81.6928 95.3155 82.1843 95.6465L89.086 100.251V100.241Z" fill="#419FD8"/>
</svg>
