<svg viewBox="0 0 287 286" fill="none" xmlns="http://www.w3.org/2000/svg">
<path d="M38.922 141.633L42.7098 137.845C42.9368 137.619 43.2986 137.626 43.5185 137.845L56.9394 151.266C58.0389 152.366 58.0388 154.153 56.9393 155.253L56.3294 155.863C55.2299 156.962 53.4423 156.962 52.3428 155.863L38.9219 142.442C38.6949 142.215 38.7021 141.853 38.922 141.633Z" fill="#1D1D1B"/>
<path d="M20.4176 119.954L21.0276 119.344C22.1271 118.245 23.9147 118.245 25.0142 119.344L38.435 132.765C38.662 132.992 38.655 133.354 38.4352 133.573L34.6472 137.361C34.4202 137.588 34.0584 137.581 33.8385 137.361L20.4176 123.941C19.3181 122.841 19.3181 121.054 20.4176 119.954Z" fill="#1D1D1B"/>
<path d="M56.3393 119.334L56.9492 119.944C58.0487 121.044 58.0487 122.831 56.9492 123.931L43.5284 137.352C43.3014 137.579 42.9396 137.572 42.7197 137.352L38.9319 133.564C38.7049 133.337 38.7119 132.975 38.9318 132.755L52.3527 119.334C53.4522 118.235 55.2398 118.235 56.3393 119.334Z" fill="#1D1D1B"/>
<path d="M34.6502 137.839L38.4382 141.627C38.6652 141.854 38.658 142.215 38.4381 142.435L25.0172 155.856C23.9177 156.956 22.1301 156.956 21.0306 155.856L20.4206 155.246C19.3212 154.147 19.3211 152.359 20.4206 151.26L33.8415 137.839C34.0685 137.612 34.4303 137.619 34.6502 137.839Z" fill="#1D1D1B"/>
<path d="M160.546 141.624L164.334 137.836C164.561 137.609 164.923 137.616 165.143 137.836L178.564 151.257C179.663 152.356 179.663 154.144 178.564 155.243L177.954 155.853C176.854 156.953 175.067 156.953 173.967 155.853L160.546 142.432C160.319 142.205 160.327 141.844 160.546 141.624Z" fill="#E68733"/>
<path d="M142.042 119.944L142.652 119.334C143.752 118.235 145.539 118.235 146.639 119.334L160.06 132.755C160.287 132.982 160.28 133.344 160.06 133.564L156.272 137.352C156.045 137.579 155.683 137.572 155.463 137.352L142.042 123.931C140.943 122.831 140.943 121.044 142.042 119.944Z" fill="#D92E5A"/>
<path d="M177.957 119.337L178.567 119.947C179.666 121.046 179.666 122.834 178.567 123.933L165.146 137.354C164.919 137.581 164.557 137.574 164.337 137.354L160.549 133.566C160.322 133.339 160.329 132.978 160.549 132.758L173.97 119.337C175.07 118.237 176.857 118.237 177.957 119.337Z" fill="#04B0A8"/>
<path d="M156.274 137.839L160.062 141.627C160.289 141.854 160.282 142.215 160.062 142.435L146.641 155.856C145.542 156.956 143.755 156.956 142.655 155.856L142.045 155.246C140.945 154.147 140.945 152.359 142.045 151.26L155.466 137.839C155.693 137.612 156.055 137.619 156.274 137.839Z" fill="#04B0A8"/>
<path d="M82.6875 156.692C82.4167 156.692 82.1558 156.702 81.8849 156.702C77.9324 156.702 74.4213 155.889 71.3617 154.264C68.302 152.639 65.9344 150.372 64.2591 147.453C62.5839 144.533 61.7512 141.233 61.7512 137.561C61.7512 133.89 62.5637 130.66 64.1889 127.74C65.814 124.821 68.0513 122.554 70.9003 120.929C73.7493 119.304 76.9593 118.491 80.5406 118.491C84.1219 118.491 87.312 119.304 90.1109 120.929C92.9097 122.554 95.0967 124.821 96.6817 127.74C98.2567 130.66 99.049 134 99.049 137.772C99.049 138.294 98.999 138.976 98.9087 139.819H68.5427C68.964 143.119 70.4187 145.767 72.8865 147.764C75.3543 149.77 78.434 150.763 82.1056 150.763C82.3464 150.763 82.577 150.763 82.8078 150.753M72.395 127.179C70.2081 129.155 68.9239 131.743 68.5427 134.943H92.5586C92.1774 131.793 90.9035 129.215 88.7065 127.209C86.5196 125.212 83.8009 124.209 80.5506 124.209C77.3004 124.209 74.5819 125.202 72.395 127.179Z" fill="#1D1D1B"/>
<path d="M84.3126 156.692H82.5671V150.763H84.3126C85.7371 150.763 86.8808 151.917 86.8808 153.331V154.124C86.8808 155.548 85.7271 156.692 84.3126 156.692Z" fill="#1D1D1B"/>
<path d="M202.476 156.692C202.205 156.692 201.944 156.702 201.674 156.702C197.721 156.702 194.21 155.889 191.15 154.264C188.091 152.639 185.723 150.372 184.048 147.453C182.373 144.533 181.54 141.233 181.54 137.561C181.54 133.89 182.353 130.66 183.978 127.74C185.603 124.821 187.84 122.554 190.689 120.929C193.538 119.304 196.748 118.491 200.329 118.491C203.911 118.491 207.101 119.304 209.899 120.929C212.698 122.554 214.885 124.821 216.47 127.74C218.045 130.66 218.838 134 218.838 137.772C218.838 138.294 218.788 138.976 218.697 139.819H188.331C188.753 143.119 190.207 145.767 192.675 147.764C195.143 149.77 198.223 150.763 201.894 150.763C202.135 150.763 202.366 150.763 202.597 150.753M192.184 127.179C189.997 129.155 188.712 131.743 188.331 134.943H212.347C211.966 131.793 210.692 129.215 208.495 127.209C206.308 125.212 203.59 124.209 200.339 124.209C197.089 124.209 194.37 125.202 192.184 127.179Z" fill="#1D1D1B"/>
<path d="M204.111 156.692H202.366V150.763H204.111C205.536 150.763 206.679 151.917 206.679 153.331V154.124C206.679 155.548 205.526 156.692 204.111 156.692Z" fill="#1D1D1B"/>
<path d="M104.617 148.516H111.719V151.886C111.719 153.582 110.335 154.966 108.639 154.966H107.697C106.001 154.966 104.617 153.582 104.617 151.886V148.516Z" fill="#1D1D1B"/>
<path d="M143.269 176.645L121.831 145.185C121.5 145.226 121.008 145.236 120.356 145.236H111.719V149.429H104.617V118.662H120.356C123.667 118.662 126.556 119.193 129.024 120.267C131.492 121.34 133.368 122.875 134.682 124.871C135.996 126.868 136.648 129.245 136.648 131.994C136.648 134.742 135.946 137.24 134.541 139.277C133.137 141.313 131.121 142.828 128.502 143.831L148.505 173.054C149.669 174.749 148.937 177.086 147.011 177.809C145.636 178.33 144.092 177.839 143.269 176.625V176.645ZM127.078 126.486C125.473 125.202 123.125 124.56 120.026 124.56H111.719V140.119H120.026C123.125 139.507 125.473 138.855 127.078 137.551C128.683 136.247 129.485 134.401 129.485 132.004C129.485 129.606 128.683 127.77 127.078 126.486Z" fill="#1D1D1B"/>
<path d="M244.86 146.018C244.86 144.343 244.228 143.029 242.964 142.106C241.7 141.173 239.493 140.37 236.343 139.698C233.193 139.026 230.695 138.224 228.849 137.281C227.003 136.338 225.639 135.224 224.746 133.92C223.863 132.616 223.422 131.071 223.422 129.285C223.422 126.306 224.686 123.788 227.204 121.721C229.722 119.665 232.942 118.632 236.864 118.632C240.988 118.632 244.328 119.695 246.896 121.822C248.261 122.955 249.264 124.26 249.906 125.724C250.778 127.741 249.294 129.988 247.097 129.988C245.823 129.988 244.609 129.255 244.148 128.061C243.796 127.149 243.194 126.326 242.322 125.594C240.877 124.36 239.061 123.748 236.864 123.748C234.668 123.748 232.832 124.239 231.558 125.223C230.284 126.206 229.642 127.5 229.642 129.085C229.642 130.589 230.234 131.713 231.427 132.475C232.611 133.238 234.758 133.97 237.858 134.662C240.957 135.355 243.475 136.187 245.401 137.15C247.328 138.113 248.752 139.277 249.685 140.631C250.618 141.986 251.079 143.641 251.079 145.587C251.079 148.837 249.775 151.435 247.177 153.402C244.579 155.358 241.208 156.341 237.065 156.341C234.156 156.341 231.578 155.829 229.341 154.796C227.104 153.763 225.348 152.328 224.084 150.482C223.723 149.951 223.402 149.399 223.141 148.847C222.198 146.821 223.663 144.483 225.91 144.483C227.184 144.483 228.358 145.266 228.769 146.47C229.18 147.674 229.882 148.637 230.906 149.439C232.461 150.663 234.517 151.275 237.075 151.275C239.423 151.275 241.319 150.803 242.733 149.85C244.158 148.897 244.87 147.623 244.87 146.038L244.86 146.018Z" fill="#1D1D1B"/>
<path d="M167.004 171.238C167.525 171.9 167.796 172.662 167.796 173.515C167.796 174.287 167.606 174.97 167.225 175.562C166.843 176.153 166.292 176.605 165.579 176.936C164.857 177.267 164.014 177.437 163.031 177.437H156.792V162.962H162.76C163.743 162.962 164.586 163.122 165.298 163.443C166.011 163.764 166.552 164.206 166.914 164.767C167.285 165.339 167.465 165.981 167.465 166.693C167.465 167.536 167.245 168.238 166.793 168.81C166.342 169.382 165.75 169.773 164.997 170.014C165.81 170.164 166.482 170.576 167.014 171.238H167.004ZM159.681 168.941H162.339C163.031 168.941 163.563 168.78 163.934 168.469C164.305 168.158 164.496 167.717 164.496 167.135C164.496 166.553 164.305 166.102 163.934 165.791C163.563 165.47 163.031 165.309 162.339 165.309H159.681V168.941ZM164.255 174.578C164.646 174.247 164.847 173.776 164.847 173.164C164.847 172.552 164.636 172.05 164.225 171.699C163.814 171.348 163.252 171.168 162.55 171.168H159.691V175.07H162.61C163.312 175.07 163.864 174.899 164.255 174.568V174.578Z" fill="#82807E"/>
<path d="M181.098 165.951L173.986 182.875H170.896L173.384 177.146L168.779 165.951H172.04L175.009 173.976L178.019 165.951H181.108H181.098Z" fill="#82807E"/>
<path d="M196.266 177.437L193.136 172.562L190.298 177.437H187.017L191.582 170.134L186.957 162.962H190.298L193.427 167.817L196.246 162.962H199.527L194.982 170.245L199.607 177.437H196.266Z" fill="#82807E"/>
<path d="M201.763 168.559C202.225 167.657 202.857 166.974 203.649 166.483C204.442 166.001 205.335 165.761 206.318 165.761C207.171 165.761 207.923 165.931 208.565 166.282C209.207 166.623 209.719 167.065 210.11 167.586V165.951H213.029V177.437H210.11V175.762C209.739 176.304 209.217 176.745 208.565 177.096C207.913 177.447 207.15 177.628 206.298 177.628C205.335 177.628 204.452 177.377 203.649 176.886C202.857 176.384 202.225 175.682 201.763 174.779C201.302 173.876 201.071 172.833 201.071 171.659C201.071 170.485 201.302 169.472 201.763 168.569V168.559ZM209.698 169.874C209.418 169.372 209.046 168.981 208.575 168.71C208.103 168.439 207.602 168.309 207.06 168.309C206.518 168.309 206.027 168.439 205.565 168.7C205.114 168.961 204.743 169.342 204.452 169.854C204.171 170.355 204.031 170.957 204.031 171.649C204.031 172.341 204.171 172.943 204.452 173.465C204.733 173.987 205.104 174.378 205.576 174.659C206.037 174.94 206.529 175.07 207.06 175.07C207.592 175.07 208.103 174.94 208.575 174.669C209.046 174.398 209.418 174.017 209.698 173.505C209.979 173.003 210.11 172.391 210.11 171.689C210.11 170.987 209.969 170.375 209.698 169.874Z" fill="#82807E"/>
<path d="M220.333 166.292C220.985 165.941 221.737 165.761 222.58 165.761C223.563 165.761 224.446 166.001 225.248 166.483C226.041 166.964 226.673 167.657 227.134 168.549C227.596 169.442 227.826 170.475 227.826 171.649C227.826 172.823 227.596 173.866 227.134 174.769C226.673 175.672 226.041 176.374 225.248 176.876C224.456 177.377 223.563 177.618 222.58 177.618C221.737 177.618 220.995 177.447 220.353 177.096C219.711 176.755 219.189 176.314 218.788 175.792V182.905H215.889V165.941H218.788V167.596C219.159 167.075 219.681 166.633 220.333 166.282V166.292ZM224.435 169.864C224.155 169.362 223.784 168.971 223.312 168.71C222.851 168.449 222.349 168.319 221.807 168.319C221.266 168.319 220.784 168.449 220.323 168.72C219.861 168.991 219.49 169.382 219.199 169.894C218.918 170.405 218.778 171.007 218.778 171.699C218.778 172.392 218.918 172.993 219.199 173.505C219.48 174.017 219.851 174.408 220.323 174.679C220.784 174.95 221.276 175.08 221.807 175.08C222.339 175.08 222.851 174.94 223.312 174.669C223.773 174.388 224.145 173.997 224.435 173.485C224.716 172.973 224.857 172.361 224.857 171.659C224.857 170.957 224.716 170.375 224.435 169.864Z" fill="#82807E"/>
<path d="M229.893 168.559C230.354 167.657 230.986 166.974 231.778 166.483C232.571 166.001 233.464 165.761 234.447 165.761C235.3 165.761 236.052 165.931 236.694 166.282C237.336 166.623 237.848 167.065 238.239 167.586V165.951H241.158V177.437H238.239V175.762C237.868 176.304 237.346 176.745 236.694 177.096C236.042 177.447 235.28 177.628 234.427 177.628C233.464 177.628 232.581 177.377 231.778 176.886C230.986 176.384 230.354 175.682 229.893 174.779C229.431 173.876 229.2 172.833 229.2 171.659C229.2 170.485 229.431 169.472 229.893 168.569V168.559ZM237.828 169.874C237.547 169.372 237.176 168.981 236.704 168.71C236.233 168.439 235.731 168.309 235.189 168.309C234.648 168.309 234.156 168.439 233.695 168.7C233.243 168.961 232.872 169.342 232.581 169.854C232.3 170.355 232.16 170.957 232.16 171.649C232.16 172.341 232.3 172.943 232.581 173.465C232.862 173.987 233.233 174.378 233.705 174.659C234.166 174.94 234.658 175.07 235.189 175.07C235.721 175.07 236.233 174.94 236.704 174.669C237.176 174.398 237.547 174.017 237.828 173.505C238.108 173.003 238.239 172.391 238.239 171.689C238.239 170.987 238.098 170.375 237.828 169.874Z" fill="#82807E"/>
<path d="M243.947 168.559C244.408 167.656 245.04 166.974 245.843 166.483C246.645 166.001 247.538 165.76 248.521 165.76C249.263 165.76 249.976 165.921 250.658 166.252C251.34 166.573 251.872 167.004 252.273 167.546V162.089H255.222V177.437H252.273V175.732C251.912 176.304 251.41 176.755 250.758 177.096C250.106 177.437 249.354 177.618 248.501 177.618C247.538 177.618 246.645 177.367 245.843 176.876C245.04 176.374 244.408 175.672 243.947 174.769C243.485 173.866 243.254 172.823 243.254 171.649C243.254 170.475 243.485 169.462 243.947 168.559ZM251.882 169.873C251.601 169.372 251.23 168.981 250.758 168.71C250.287 168.439 249.785 168.308 249.244 168.308C248.702 168.308 248.21 168.439 247.749 168.7C247.297 168.96 246.926 169.342 246.635 169.853C246.354 170.355 246.214 170.957 246.214 171.649C246.214 172.341 246.354 172.943 246.635 173.465C246.916 173.986 247.287 174.378 247.759 174.659C248.22 174.939 248.712 175.07 249.244 175.07C249.775 175.07 250.287 174.939 250.758 174.669C251.23 174.398 251.601 174.017 251.882 173.505C252.163 173.003 252.293 172.391 252.293 171.689C252.293 170.987 252.153 170.375 251.882 169.873Z" fill="#82807E"/>
<path d="M259.928 177.116C259.185 176.775 258.594 176.314 258.152 175.742C257.721 175.16 257.48 174.518 257.44 173.816H260.359C260.409 174.257 260.63 174.628 261.011 174.919C261.392 175.21 261.864 175.351 262.436 175.351C263.008 175.351 263.419 175.24 263.73 175.02C264.041 174.799 264.201 174.518 264.201 174.167C264.201 173.796 264.011 173.515 263.629 173.324C263.248 173.134 262.646 172.933 261.814 172.712C260.961 172.502 260.259 172.291 259.707 172.07C259.165 171.85 258.694 171.509 258.292 171.057C257.901 170.606 257.701 169.984 257.701 169.211C257.701 168.579 257.881 167.997 258.253 167.466C258.614 166.944 259.145 166.523 259.827 166.222C260.51 165.921 261.312 165.77 262.245 165.77C263.609 165.77 264.703 166.111 265.526 166.794C266.338 167.476 266.789 168.399 266.87 169.562H264.091C264.051 169.111 263.86 168.74 263.519 168.469C263.178 168.198 262.727 168.068 262.165 168.068C261.643 168.068 261.232 168.168 260.951 168.359C260.67 168.549 260.53 168.82 260.53 169.171C260.53 169.562 260.72 169.853 261.111 170.054C261.503 170.255 262.105 170.455 262.917 170.666C263.75 170.876 264.432 171.087 264.974 171.308C265.515 171.529 265.977 171.87 266.378 172.331C266.769 172.793 266.98 173.404 266.99 174.167C266.99 174.829 266.81 175.421 266.438 175.953C266.067 176.474 265.545 176.885 264.863 177.186C264.181 177.487 263.379 177.628 262.466 177.628C261.553 177.628 260.68 177.457 259.938 177.116H259.928Z" fill="#82807E"/>
<path fill-rule="evenodd" clip-rule="evenodd" d="M261.212 119.504C264 119.504 266.258 121.762 266.258 124.55C266.258 127.339 264 129.596 261.212 129.596C258.423 129.596 256.166 127.339 256.166 124.55C256.166 121.762 258.423 119.504 261.212 119.504ZM261.212 118.632C264.482 118.632 267.14 121.28 267.14 124.56C267.14 127.841 264.492 130.489 261.212 130.489C257.931 130.489 255.283 127.841 255.283 124.56C255.283 121.28 257.931 118.632 261.212 118.632Z" fill="#1D1D1B"/>
<path d="M260.319 122.935H261.453C262.024 122.935 262.416 123.236 262.416 123.687C262.416 124.139 262.024 124.44 261.453 124.44H260.319V122.925V122.935ZM263.7 127.239L262.385 125.373C263.118 125.112 263.599 124.49 263.599 123.697C263.599 122.634 262.746 121.892 261.583 121.892H259.175V127.249H260.319V125.513H261.172L262.395 127.249H263.7V127.239Z" fill="#1D1D1B"/>
</svg>
