<svg  viewBox="0 0 201 201" fill="none" xmlns="http://www.w3.org/2000/svg">
<path d="M161.036 108.146H141.715V113.473H161.036V108.146Z" fill="#3771B8"/>
<path d="M161.036 91.554H141.715V96.8809H161.036V91.554Z" fill="#3771B8"/>
<path d="M161.036 99.9707H141.715V105.067H161.036V99.9707Z" fill="#3771B8"/>
<path d="M44.7885 113.473V91.554H56.3049C63.3271 91.554 67.7209 96.1686 67.7209 102.519C67.7209 108.869 63.4274 113.483 56.3049 113.483H44.7885V113.473ZM51.0282 108.377H56.3049C59.3043 108.377 61.4912 105.568 61.4912 102.499C61.4912 99.4289 59.6655 96.5999 56.3049 96.5999H51.0282V108.377Z" fill="#3771B8"/>
<path d="M73.0277 88.2535H88.3863C93.5426 88.2535 96.5521 92.3363 96.5521 96.5396C96.5521 99.6795 94.646 102.749 92.0077 103.742L96.5922 113.473H89.9011L85.6075 104.354H79.6386V113.473H73.0277V88.2535ZM79.6486 99.2282H87.5737C87.9248 99.2382 88.2759 99.178 88.5969 99.0475C88.9179 98.9171 89.2189 98.7165 89.4697 98.4658C89.7205 98.215 89.9111 97.914 90.0415 97.583C90.1719 97.2519 90.2321 96.9008 90.2221 96.5396C90.2221 95.075 89.3995 93.8612 87.5837 93.8612H79.6587V99.2282H79.6486Z" fill="#3771B8"/>
<path d="M108.791 91.554H102.35V113.473H108.791V91.554Z" fill="#3771B8"/>
<path d="M138.665 91.554L128.333 113.473H122.143L111.81 91.554H118.411L125.122 106.06H125.333L132.054 91.554H138.655H138.665Z" fill="#3771B8"/>
<path d="M166.604 91.554H179.645C185.052 91.554 188.041 94.5233 188.091 98.8269C188.142 100.161 187.78 101.475 187.068 102.589C186.356 103.702 185.323 104.575 184.109 105.077C184.229 105.077 188.112 113.473 188.112 113.473H181.571L178.03 106.06H172.723V113.473H166.604V91.554ZM179.645 100.974C181.26 100.974 182.082 99.9605 182.082 98.8269C182.082 97.6934 181.31 96.6602 179.645 96.6602H172.843V100.974H179.645Z" fill="#3771B8"/>
<path d="M29.7709 88.2534H24.3538L12.9478 113.473H20.0301L21.8358 109.601H32.2989L34.1046 113.473H41.177L29.791 88.2534H29.7709ZM23.6817 104.505L27.0624 96.1884L30.4431 104.505H23.6817Z" fill="#3771B8"/>
</svg>
