<svg  viewBox="0 0 201 201" fill="none" xmlns="http://www.w3.org/2000/svg">
<path d="M70.3567 106.502V97.3325L73.4866 96.4899V97.5532C74.0082 96.9312 75.1319 96.1788 76.5764 96.1788C78.021 96.1788 78.994 96.7807 79.5357 97.5532C80.3483 96.8008 81.4117 96.1788 82.7259 96.1788C85.7253 96.1788 86.4175 98.5965 86.4175 100.081V106.502H82.8762V100.392C82.8762 99.5997 82.3547 99.2084 81.7327 99.2084C81.2512 99.2084 80.7094 99.4191 80.268 99.8505V106.502H76.7269V100.392C76.7269 99.5997 76.2053 99.2084 75.5833 99.2084C75.0215 99.2084 74.3795 99.4993 73.918 100.081V106.502H70.3768H70.3567Z" fill="#572A6B"/>
<path d="M93.2591 98.747C92.2759 98.747 91.4633 99.389 91.4633 100.432H94.8239C94.9243 99.9507 94.6735 98.747 93.2591 98.747ZM93.1787 96.1788C97.4723 96.1788 98.7664 99.5194 98.0541 102.559H91.5035C91.9048 103.662 93.259 104.104 94.6935 104.104C95.8171 104.104 96.74 103.933 97.5726 103.622V106.251C96.6296 106.582 95.4459 106.813 93.8609 106.813C90.5705 106.813 87.9221 104.937 87.9221 101.496C87.9221 97.5733 90.9818 96.1788 93.1787 96.1788Z" fill="#572A6B"/>
<path d="M105.147 99.108C103.642 99.108 103 100.342 103 101.506C103 102.669 103.642 103.903 105.147 103.903C106.13 103.903 106.852 103.301 107.173 102.649V100.352C106.862 99.7099 106.13 99.098 105.147 99.098M110.714 91.9052V106.501H107.584V105.147C107.083 105.98 105.979 106.812 104.183 106.812C100.823 106.812 99.3481 104.084 99.3481 101.496C99.3481 98.9074 100.833 96.1787 104.183 96.1787C105.578 96.1787 106.561 96.6803 107.163 97.3022V92.7379L110.704 91.8953L110.714 91.9052Z" fill="#572A6B"/>
<path d="M112.861 106.501V97.3323L116.402 96.4896V106.501H112.861ZM114.637 95.5466C113.573 95.5466 112.61 94.9648 112.61 93.5905C112.61 92.2161 113.573 91.6543 114.637 91.6543C115.7 91.6543 116.663 92.2362 116.663 93.5905C116.663 94.9448 115.73 95.5466 114.637 95.5466Z" fill="#572A6B"/>
<path d="M122.822 104.415C123.404 104.415 123.926 104.294 124.468 103.893V102.539C124.157 102.438 123.675 102.348 123.194 102.348C122.361 102.348 121.609 102.639 121.609 103.432C121.609 103.953 122.07 104.415 122.822 104.415ZM128.701 104.264C128.821 104.264 128.972 104.244 129.102 104.204V106.391C128.621 106.581 127.979 106.702 127.306 106.702C126.203 106.702 125.39 106.301 124.929 105.598C123.966 106.351 122.862 106.812 121.448 106.812C119.532 106.812 117.967 105.669 117.967 103.722C117.967 101.204 120.365 100.432 122.301 100.432C123.053 100.432 123.805 100.512 124.468 100.663V100.312C124.468 99.5994 123.795 99.0577 122.381 99.0577C121.067 99.0577 119.863 99.4288 118.88 99.8301V96.8507C119.712 96.5799 121.297 96.1886 122.782 96.1886C125.972 96.1886 128.019 97.2921 128.019 100.853V103.642C128.019 104.124 128.35 104.264 128.711 104.264" fill="#572A6B"/>
<path d="M133.857 92.848V96.4996H136.566V99.4188H133.857V102.669C133.857 103.462 134.279 103.903 135.171 103.903C135.753 103.903 136.235 103.843 136.777 103.652V106.401C135.984 106.672 135.091 106.822 134.068 106.822C132.132 106.822 130.316 106.03 130.316 103.381V93.6907L133.857 92.8581V92.848Z" fill="#572A6B"/>
<path d="M143.448 99.3087C141.993 99.3087 141.472 100.372 141.472 101.496C141.472 102.619 141.993 103.683 143.448 103.683C144.902 103.683 145.424 102.619 145.424 101.496C145.424 100.372 144.902 99.3087 143.448 99.3087ZM143.448 96.1788C146.447 96.1788 149.075 97.9545 149.075 101.496C149.075 105.037 146.447 106.813 143.448 106.813C140.448 106.813 137.82 105.037 137.82 101.496C137.82 97.9545 140.448 96.1788 143.448 96.1788Z" fill="#572A6B"/>
<path d="M155.998 99.108C154.493 99.108 153.851 100.342 153.851 101.506C153.851 102.669 154.493 103.903 155.998 103.903C156.981 103.903 157.703 103.301 158.024 102.649V100.352C157.713 99.7099 156.981 99.098 155.998 99.098M161.565 91.9052V106.501H158.435V105.147C157.934 105.98 156.83 106.812 155.035 106.812C151.674 106.812 150.199 104.084 150.199 101.496C150.199 98.9074 151.684 96.1787 155.035 96.1787C156.429 96.1787 157.412 96.6803 158.014 97.3022V92.7379L161.555 91.8953L161.565 91.9052Z" fill="#572A6B"/>
<path d="M167.965 104.415C168.547 104.415 169.069 104.294 169.61 103.893V102.539C169.299 102.438 168.818 102.348 168.336 102.348C167.504 102.348 166.752 102.639 166.752 103.432C166.752 103.953 167.213 104.415 167.965 104.415ZM173.844 104.264C173.964 104.264 174.115 104.244 174.245 104.204V106.391C173.764 106.581 173.122 106.702 172.449 106.702C171.346 106.702 170.534 106.301 170.072 105.598C169.109 106.351 168.005 106.812 166.591 106.812C164.675 106.812 163.11 105.669 163.11 103.722C163.11 101.204 165.508 100.432 167.444 100.432C168.196 100.432 168.948 100.512 169.61 100.663V100.312C169.61 99.5994 168.938 99.0577 167.524 99.0577C166.21 99.0577 165.006 99.4288 164.023 99.8301V96.8507C164.856 96.5799 166.44 96.1886 167.925 96.1886C171.115 96.1886 173.162 97.2921 173.162 100.853V103.642C173.162 104.124 173.493 104.264 173.854 104.264" fill="#572A6B"/>
<path d="M181.919 96.4996H185.571L181.378 107.545C180.234 110.544 178.499 111.357 176.793 111.357C176.171 111.357 175.539 111.236 174.957 111.086V108.167C175.399 108.267 175.85 108.337 176.312 108.337C177.185 108.337 177.917 107.835 178.398 106.752L173.683 96.4996H177.435L179.873 102.458L181.919 96.4996Z" fill="#572A6B"/>
<path d="M14.9417 77.7903V123.936H61.1779V77.7903H14.9417ZM41.8968 106.511H38.3557V100.402C38.3557 99.6093 37.8341 99.218 37.2121 99.218C36.7306 99.218 36.1888 99.4287 35.7474 99.86V106.511H32.2063V100.402C32.2063 99.6093 31.6846 99.218 31.0627 99.218C30.5009 99.218 29.8588 99.5089 29.3974 100.091V106.511H25.8562V97.3421L28.986 96.4994V97.5627C29.5077 96.9408 30.6313 96.1884 32.0759 96.1884C33.5205 96.1884 34.4935 96.7903 35.0352 97.5627C35.8478 96.8104 36.9112 96.1884 38.2253 96.1884C41.2248 96.1884 41.9169 98.6061 41.9169 100.091V106.511H41.8968ZM50.2833 106.411C49.4908 106.682 48.5981 106.832 47.5748 106.832C45.6387 106.832 43.823 106.04 43.823 103.391V93.7006L47.3642 92.868V96.5195H50.0727V99.4387H47.3642V102.689C47.3642 103.481 47.7855 103.923 48.6783 103.923C49.2601 103.923 49.7416 103.863 50.2833 103.672V106.421V106.411Z" fill="#572A6B"/>
</svg>
