<svg  viewBox="0 0 286 286" fill="none" xmlns="http://www.w3.org/2000/svg">
<path d="M42.0698 131.934C42.9326 133.068 43.6649 134.291 44.2467 135.585L27.7145 147.935L20.8026 143.541V138.264L27.7145 142.658L42.0698 131.934Z" fill="#2CA13C"/>
<path d="M13.7503 143.18C13.7503 142.939 13.7503 142.708 13.7703 142.478L9.57707 142.267C9.56704 142.568 9.55701 142.879 9.55701 143.18C9.55701 145.597 10.0285 147.985 10.9414 150.212C11.8543 152.439 13.1885 154.465 14.8838 156.171L17.8532 153.161C16.5491 151.847 15.5259 150.292 14.8237 148.577C14.1214 146.861 13.7603 145.016 13.7603 143.16L13.7503 143.18Z" fill="url(#paint0_linear_585_2219)"/>
<path d="M27.7045 129.035C27.9352 129.035 28.1659 129.035 28.4067 129.055L28.6173 124.811C28.3164 124.791 28.0154 124.791 27.7145 124.791C25.3269 124.791 22.9595 125.273 20.7525 126.196C18.5455 127.119 16.5492 128.473 14.8739 130.178L17.8433 133.188C19.1273 131.874 20.6722 130.83 22.3676 130.108C24.0629 129.396 25.8787 129.035 27.7045 129.035Z" fill="url(#paint1_linear_585_2219)"/>
<path d="M27.7045 157.324C27.4738 157.324 27.2431 157.324 27.0023 157.304L26.7916 161.547C27.0926 161.558 27.3935 161.568 27.6945 161.568C30.082 161.568 32.4395 161.096 34.6364 160.173C36.8434 159.24 38.8397 157.886 40.515 156.181L37.5556 153.171C36.2716 154.485 34.7367 155.528 33.0414 156.241C31.346 156.953 29.5303 157.324 27.6945 157.324H27.7045Z" fill="url(#paint2_linear_585_2219)"/>
<path d="M35.5692 131.503L39.1004 128.864C35.8902 126.226 31.8575 124.781 27.6943 124.781V129.025C30.5132 129.025 33.2619 129.888 35.5692 131.493V131.503Z" fill="url(#paint3_linear_585_2219)"/>
<path d="M45.8519 143.179C45.8519 142.076 45.7616 140.972 45.571 139.879L41.6686 142.798V143.179C41.6686 145.156 41.2573 147.112 40.4648 148.918C39.6723 150.723 38.5187 152.338 37.0641 153.663L39.883 156.823C41.769 155.097 43.2737 152.99 44.2969 150.643C45.3202 148.286 45.8519 145.748 45.8519 143.179Z" fill="#2CA13C"/>
<path d="M27.7045 157.324C25.7483 157.324 23.8222 156.913 22.0466 156.11C20.2609 155.308 18.6659 154.134 17.3618 152.669L14.252 155.528C15.9473 157.434 18.0239 158.959 20.3512 160.003C22.6686 161.046 25.1765 161.578 27.7145 161.578V157.324H27.7045Z" fill="url(#paint4_linear_585_2219)"/>
<path d="M18.3448 132.696L15.5259 129.547C13.6399 131.272 12.1352 133.379 11.1119 135.716C10.0787 138.073 9.54699 140.611 9.55702 143.18H13.7503C13.7503 141.203 14.1616 139.247 14.9541 137.441C15.7466 135.636 16.9002 134.021 18.3448 132.696Z" fill="url(#paint5_linear_585_2219)"/>
<path d="M78.3747 151.917C78.0938 152.258 77.7025 152.599 77.211 152.93C76.7094 153.262 76.1175 153.562 75.4354 153.823C74.7532 154.094 73.9908 154.305 73.1481 154.475C72.3055 154.646 71.4026 154.736 70.4396 154.736C68.6038 154.736 66.9385 154.465 65.4438 153.934C63.9491 153.402 62.675 152.64 61.6217 151.646C60.5684 150.653 59.7458 149.439 59.1539 148.015C58.562 146.58 58.2711 144.965 58.2711 143.15C58.2711 141.464 58.562 139.919 59.1338 138.505C59.7057 137.1 60.5283 135.877 61.6016 134.853C62.665 133.83 63.9591 133.038 65.4639 132.466C66.9686 131.904 68.6539 131.613 70.5098 131.613C72.3657 131.613 73.8002 131.834 75.0542 132.265C76.3182 132.707 77.2712 133.158 77.9333 133.629V139.197C77.5922 138.706 77.1709 138.224 76.6693 137.752C76.1677 137.281 75.6059 136.87 74.9739 136.509C74.3419 136.147 73.6497 135.857 72.8974 135.626C72.1349 135.405 71.3424 135.285 70.5098 135.285C69.296 135.285 68.1925 135.475 67.2094 135.857C66.2263 136.238 65.3936 136.779 64.7115 137.462C64.0293 138.144 63.5077 138.976 63.1465 139.939C62.7854 140.912 62.6048 141.986 62.6048 143.16C62.6048 144.253 62.7653 145.266 63.0964 146.219C63.4274 147.172 63.919 147.995 64.571 148.697C65.2231 149.399 66.0357 149.961 67.0188 150.382C68.0019 150.794 69.1355 151.014 70.4095 151.034C71.3926 151.034 72.2955 150.924 73.1181 150.713C73.9407 150.503 74.683 150.212 75.3551 149.851C76.0272 149.49 76.6191 149.058 77.1307 148.567C77.6424 148.075 78.0637 147.543 78.3747 146.962V151.887V151.917Z" fill="#2CA13C"/>
<path d="M92.9105 135.656H85.5172V139.659H89.901C92.9908 139.659 95.3181 140.251 96.863 141.424C98.4079 142.598 99.1804 144.424 99.1804 146.902C99.1804 148.135 98.9597 149.219 98.5283 150.152C98.0869 151.085 97.4649 151.857 96.6423 152.489C95.8197 153.121 94.8366 153.593 93.683 153.914C92.5293 154.235 91.2352 154.395 89.8107 154.395H81.5145V131.984H97.9665L92.9105 135.666V135.656ZM85.5172 143.34V150.704H89.7706C90.5631 150.704 91.2854 150.643 91.9274 150.513C92.5795 150.383 93.1312 150.172 93.5927 149.871C94.0542 149.57 94.4053 149.169 94.646 148.667C94.8868 148.166 95.0172 147.544 95.0172 146.791C95.0172 145.447 94.5758 144.534 93.693 144.053C92.8102 143.571 91.4961 143.33 89.7706 143.33H85.5172V143.34Z" fill="#2CA13C"/>
<path d="M113.395 135.656H106.002V141.003H116.315V144.684H106.002V150.703H117.849V154.385H101.999V131.974H118.451L113.395 135.656Z" fill="#2CA13C"/>
<path d="M125.183 147.403V154.385H121.18V131.974H128.644C132.185 131.974 134.753 132.606 136.348 133.88C137.933 135.154 138.735 137.04 138.735 139.558C138.735 142.076 137.883 144.143 136.177 145.447C134.472 146.751 131.964 147.403 128.654 147.403H125.193H125.183ZM125.183 135.656V143.721H128.924C130.8 143.721 132.215 143.4 133.148 142.748C134.091 142.096 134.552 141.003 134.552 139.468C134.552 138.083 134.111 137.1 133.238 136.518C132.365 135.947 130.941 135.656 128.985 135.656H125.173H125.183Z" fill="#2CA13C"/>
<path d="M169.964 151.917C169.683 152.258 169.292 152.599 168.8 152.93C168.299 153.262 167.707 153.562 167.025 153.823C166.343 154.094 165.58 154.305 164.738 154.475C163.895 154.646 162.992 154.736 162.029 154.736C160.193 154.736 158.528 154.465 157.033 153.934C155.538 153.402 154.264 152.64 153.211 151.646C152.158 150.653 151.335 149.439 150.743 148.015C150.151 146.58 149.86 144.965 149.86 143.15C149.86 141.464 150.151 139.919 150.723 138.505C151.295 137.1 152.118 135.877 153.191 134.853C154.254 133.83 155.548 133.038 157.053 132.466C158.558 131.904 160.243 131.613 162.099 131.613C163.955 131.613 165.39 131.834 166.644 132.265C167.908 132.707 168.861 133.158 169.523 133.629V139.197C169.182 138.706 168.76 138.224 168.259 137.752C167.757 137.281 167.195 136.87 166.563 136.509C165.931 136.147 165.239 135.857 164.487 135.626C163.724 135.405 162.932 135.285 162.099 135.285C160.885 135.285 159.782 135.475 158.799 135.857C157.816 136.238 156.983 136.779 156.301 137.462C155.619 138.144 155.097 138.976 154.736 139.939C154.375 140.912 154.194 141.986 154.194 143.16C154.194 144.253 154.355 145.266 154.686 146.219C155.017 147.172 155.508 147.995 156.16 148.697C156.812 149.399 157.625 149.961 158.608 150.382C159.591 150.794 160.725 151.014 161.999 151.034C162.982 151.034 163.885 150.924 164.707 150.713C165.53 150.503 166.272 150.212 166.944 149.851C167.617 149.49 168.208 149.058 168.72 148.567C169.232 148.075 169.653 147.543 169.964 146.962V151.887V151.917Z" fill="#004E62"/>
<path d="M187.409 144.684H177.097V150.703H188.944V154.385H173.094V131.974H188.593V135.656H177.097V141.003H187.409V144.684Z" fill="#004E62"/>
<path d="M208.205 135.656H199.688L199.628 136.709C199.477 139.418 199.277 141.745 199.016 143.691C198.755 145.637 198.464 147.272 198.133 148.607C197.802 149.941 197.431 151.004 197.01 151.807C196.588 152.609 196.147 153.221 195.685 153.653C195.214 154.084 194.722 154.355 194.201 154.485C193.679 154.616 193.147 154.676 192.616 154.676C191.863 154.676 191.271 154.566 190.82 154.355V150.322C190.991 150.382 191.161 150.432 191.312 150.453C191.472 150.473 191.623 150.483 191.773 150.483C192.034 150.483 192.295 150.442 192.556 150.352C192.826 150.272 193.087 150.071 193.358 149.76C193.629 149.449 193.88 148.988 194.11 148.386C194.341 147.774 194.572 146.961 194.783 145.938C194.993 144.915 195.184 143.641 195.354 142.126C195.525 140.611 195.665 138.776 195.766 136.619L195.986 131.974H212.188V154.385H208.185V135.656H208.205Z" fill="#004E62"/>
<path d="M231.95 135.656H223.433L223.373 136.709C223.222 139.418 223.022 141.745 222.761 143.691C222.5 145.637 222.209 147.272 221.878 148.607C221.547 149.941 221.176 151.004 220.755 151.807C220.333 152.609 219.892 153.221 219.43 153.653C218.959 154.084 218.467 154.355 217.946 154.485C217.424 154.616 216.892 154.676 216.361 154.676C215.608 154.676 215.016 154.566 214.565 154.355V150.322C214.736 150.382 214.906 150.432 215.057 150.453C215.217 150.473 215.368 150.483 215.518 150.483C215.779 150.483 216.04 150.442 216.301 150.352C216.571 150.272 216.832 150.071 217.103 149.76C217.374 149.449 217.625 148.988 217.855 148.386C218.086 147.774 218.317 146.961 218.528 145.938C218.738 144.915 218.929 143.641 219.099 142.126C219.27 140.611 219.41 138.776 219.511 136.619L219.731 131.974H235.933V154.385H231.93V135.656H231.95Z" fill="#004E62"/>
<path d="M254.531 144.684H244.219V150.703H256.066V154.385H240.216V131.974H255.715V135.656H244.219V141.003H254.531V144.684Z" fill="#004E62"/>
<path d="M263.259 147.403V154.385H259.256V131.974H266.72C270.261 131.974 272.829 132.606 274.424 133.88C276.009 135.154 276.812 137.04 276.812 139.558C276.812 142.076 275.959 144.143 274.254 145.447C272.548 146.751 270.04 147.403 266.73 147.403H263.269H263.259ZM263.259 135.656V143.721H267.001C268.877 143.721 270.291 143.4 271.224 142.748C272.167 142.096 272.629 141.003 272.629 139.468C272.629 138.083 272.187 137.1 271.314 136.518C270.442 135.947 269.017 135.656 267.061 135.656H263.249H263.259Z" fill="#004E62"/>
<defs>
<linearGradient id="paint0_linear_585_2219" x1="15.7566" y1="155.639" x2="11.0718" y2="142.257" gradientUnits="userSpaceOnUse">
<stop offset="0.14" stop-color="#F1E519"/>
<stop offset="0.3" stop-color="#E6E11C"/>
<stop offset="0.58" stop-color="#C7D429"/>
<stop offset="0.89" stop-color="#A0C63B"/>
</linearGradient>
<linearGradient id="paint1_linear_585_2219" x1="16.0576" y1="130.891" x2="27.8951" y2="126.446" gradientUnits="userSpaceOnUse">
<stop offset="0.06" stop-color="#23A6DE"/>
<stop offset="0.54" stop-color="#468BCA"/>
<stop offset="0.92" stop-color="#3F87C7"/>
</linearGradient>
<linearGradient id="paint2_linear_585_2219" x1="26.5107" y1="158.959" x2="39.873" y2="155.98" gradientUnits="userSpaceOnUse">
<stop offset="0.12" stop-color="#A0C63B"/>
<stop offset="0.28" stop-color="#86BD3B"/>
<stop offset="0.87" stop-color="#29A03B"/>
</linearGradient>
<linearGradient id="paint3_linear_585_2219" x1="26.8115" y1="126.266" x2="38.2477" y2="129.747" gradientUnits="userSpaceOnUse">
<stop offset="0.06" stop-color="#3F87C7"/>
<stop offset="0.79" stop-color="#1F89C9"/>
</linearGradient>
<linearGradient id="paint4_linear_585_2219" x1="15.2852" y1="155.037" x2="27.7446" y2="159.631" gradientUnits="userSpaceOnUse">
<stop offset="0.13" stop-color="#F1E519"/>
<stop offset="0.3" stop-color="#E9E219"/>
<stop offset="0.53" stop-color="#D6DA21"/>
<stop offset="0.8" stop-color="#B8CF30"/>
<stop offset="0.98" stop-color="#A0C63B"/>
</linearGradient>
<linearGradient id="paint5_linear_585_2219" x1="11.0417" y1="143.661" x2="16.1378" y2="130.57" gradientUnits="userSpaceOnUse">
<stop offset="0.07" stop-color="#A0C63B"/>
<stop offset="0.26" stop-color="#81BE5F"/>
<stop offset="0.92" stop-color="#23A6DE"/>
</linearGradient>
</defs>
</svg>
