<svg  viewBox="0 0 287 286" fill="none" xmlns="http://www.w3.org/2000/svg">
<path d="M171.819 177.658C172.271 178.23 172.492 178.872 172.492 179.605C172.492 180.267 172.331 180.848 172 181.35C171.679 181.852 171.207 182.243 170.586 182.534C169.974 182.815 169.241 182.955 168.409 182.955H163.072V170.576H168.178C169.021 170.576 169.743 170.716 170.355 170.987C170.967 171.258 171.428 171.639 171.739 172.121C172.05 172.602 172.211 173.154 172.211 173.766C172.211 174.488 172.02 175.09 171.639 175.572C171.258 176.053 170.746 176.404 170.104 176.605C170.806 176.735 171.378 177.087 171.819 177.648V177.658ZM165.56 175.692H167.827C168.419 175.692 168.87 175.562 169.191 175.291C169.512 175.02 169.673 174.639 169.673 174.147C169.673 173.656 169.512 173.264 169.191 172.994C168.87 172.723 168.419 172.582 167.827 172.582H165.56V175.682V175.692ZM169.472 180.517C169.813 180.237 169.974 179.835 169.974 179.314C169.974 178.792 169.793 178.361 169.442 178.06C169.091 177.759 168.609 177.608 168.007 177.608H165.56V180.939H168.058C168.659 180.939 169.131 180.798 169.472 180.517Z" fill="#82807E"/>
<path d="M183.877 173.134L177.798 187.6H175.16L177.286 182.704L173.354 173.124H176.143L178.681 179.986L181.249 173.124H183.887L183.877 173.134Z" fill="#82807E"/>
<path d="M196.839 182.965L194.16 178.802L191.732 182.965H188.934L192.836 176.726L188.883 170.586H191.742L194.421 174.739L196.829 170.586H199.627L195.745 176.806L199.698 182.955H196.839V182.965Z" fill="#82807E"/>
<path d="M201.543 175.371C201.934 174.599 202.476 174.007 203.158 173.596C203.84 173.184 204.593 172.974 205.435 172.974C206.168 172.974 206.81 173.124 207.362 173.415C207.913 173.706 208.355 174.087 208.686 174.529V173.124H211.183V182.945H208.686V181.511C208.365 181.972 207.923 182.353 207.362 182.654C206.8 182.955 206.148 183.106 205.415 183.106C204.593 183.106 203.83 182.895 203.158 182.464C202.476 182.042 201.944 181.44 201.543 180.668C201.152 179.896 200.951 179.003 200.951 178C200.951 176.996 201.152 176.124 201.543 175.361V175.371ZM208.325 176.495C208.084 176.063 207.773 175.732 207.372 175.502C206.97 175.271 206.539 175.161 206.077 175.161C205.616 175.161 205.195 175.271 204.803 175.502C204.412 175.722 204.101 176.053 203.85 176.485C203.61 176.916 203.489 177.428 203.489 178.02C203.489 178.612 203.61 179.123 203.85 179.575C204.091 180.016 204.412 180.357 204.803 180.598C205.195 180.839 205.626 180.949 206.067 180.949C206.509 180.949 206.96 180.839 207.362 180.608C207.763 180.377 208.084 180.046 208.315 179.615C208.555 179.183 208.665 178.662 208.665 178.06C208.665 177.458 208.545 176.936 208.315 176.505L208.325 176.495Z" fill="#82807E"/>
<path d="M217.413 173.435C217.975 173.134 218.617 172.983 219.34 172.983C220.182 172.983 220.935 173.194 221.617 173.605C222.299 174.017 222.831 174.609 223.232 175.371C223.623 176.133 223.824 177.016 223.824 178.019C223.824 179.023 223.623 179.915 223.232 180.688C222.841 181.46 222.299 182.062 221.617 182.484C220.935 182.905 220.182 183.126 219.34 183.126C218.617 183.126 217.985 182.975 217.433 182.684C216.882 182.393 216.44 182.012 216.099 181.571V187.65H213.622V173.144H216.099V174.558C216.42 174.107 216.862 173.736 217.423 173.435H217.413ZM220.924 176.485C220.684 176.053 220.363 175.722 219.971 175.501C219.58 175.281 219.149 175.16 218.687 175.16C218.226 175.16 217.815 175.271 217.423 175.501C217.032 175.732 216.711 176.063 216.47 176.505C216.23 176.946 216.109 177.458 216.109 178.05C216.109 178.641 216.23 179.153 216.47 179.594C216.711 180.036 217.032 180.367 217.423 180.598C217.815 180.828 218.246 180.939 218.687 180.939C219.129 180.939 219.58 180.818 219.971 180.588C220.363 180.347 220.684 180.016 220.924 179.574C221.165 179.133 221.286 178.621 221.286 178.009C221.286 177.397 221.165 176.906 220.924 176.475V176.485Z" fill="#82807E"/>
<path d="M225.589 175.371C225.98 174.599 226.522 174.007 227.204 173.596C227.886 173.184 228.639 172.974 229.481 172.974C230.214 172.974 230.856 173.124 231.407 173.415C231.959 173.706 232.4 174.087 232.731 174.529V173.124H235.229V182.945H232.731V181.511C232.41 181.972 231.969 182.353 231.407 182.654C230.846 182.955 230.193 183.106 229.461 183.106C228.639 183.106 227.876 182.895 227.204 182.464C226.522 182.042 225.99 181.44 225.589 180.668C225.198 179.896 224.997 179.003 224.997 178C224.997 176.996 225.198 176.124 225.589 175.361V175.371ZM232.37 176.495C232.13 176.063 231.819 175.732 231.418 175.502C231.016 175.271 230.585 175.161 230.123 175.161C229.662 175.161 229.241 175.271 228.849 175.502C228.458 175.722 228.147 176.053 227.896 176.485C227.656 176.916 227.535 177.428 227.535 178.02C227.535 178.612 227.656 179.123 227.896 179.575C228.137 180.016 228.458 180.357 228.849 180.598C229.241 180.839 229.672 180.949 230.113 180.949C230.555 180.949 231.006 180.839 231.407 180.608C231.809 180.377 232.13 180.046 232.36 179.615C232.601 179.183 232.711 178.662 232.711 178.06C232.711 177.458 232.591 176.936 232.36 176.505L232.37 176.495Z" fill="#82807E"/>
<path d="M237.617 175.371C238.008 174.599 238.55 174.007 239.242 173.596C239.924 173.184 240.686 172.974 241.529 172.974C242.171 172.974 242.773 173.114 243.355 173.395C243.937 173.676 244.398 174.047 244.739 174.499V169.834H247.257V182.955H244.739V181.501C244.428 181.982 243.997 182.374 243.445 182.674C242.894 182.965 242.241 183.116 241.509 183.116C240.676 183.116 239.924 182.905 239.242 182.474C238.56 182.053 238.018 181.451 237.617 180.678C237.226 179.906 237.025 179.013 237.025 178.01C237.025 177.007 237.226 176.134 237.617 175.371ZM244.398 176.495C244.158 176.064 243.847 175.733 243.445 175.502C243.044 175.271 242.613 175.161 242.151 175.161C241.69 175.161 241.268 175.271 240.877 175.502C240.486 175.723 240.175 176.054 239.924 176.485C239.683 176.916 239.563 177.428 239.563 178.02C239.563 178.612 239.683 179.123 239.924 179.575C240.165 180.016 240.486 180.357 240.877 180.598C241.268 180.839 241.7 180.949 242.141 180.949C242.583 180.949 243.034 180.839 243.435 180.608C243.837 180.377 244.158 180.046 244.388 179.615C244.629 179.183 244.739 178.662 244.739 178.06C244.739 177.458 244.619 176.936 244.388 176.505L244.398 176.495Z" fill="#82807E"/>
<path d="M251.27 182.684C250.628 182.393 250.127 182.002 249.756 181.5C249.384 181.009 249.184 180.457 249.144 179.855H251.641C251.692 180.236 251.872 180.547 252.203 180.798C252.524 181.049 252.936 181.169 253.417 181.169C253.899 181.169 254.26 181.079 254.521 180.888C254.792 180.698 254.922 180.457 254.922 180.166C254.922 179.845 254.761 179.604 254.43 179.444C254.109 179.283 253.588 179.113 252.875 178.922C252.143 178.742 251.541 178.561 251.08 178.371C250.608 178.18 250.207 177.889 249.876 177.498C249.535 177.107 249.374 176.585 249.374 175.923C249.374 175.381 249.535 174.88 249.846 174.438C250.157 173.987 250.608 173.636 251.19 173.375C251.772 173.114 252.464 172.983 253.257 172.983C254.43 172.983 255.363 173.274 256.055 173.866C256.758 174.448 257.139 175.241 257.209 176.234H254.831C254.791 175.843 254.631 175.532 254.34 175.301C254.049 175.07 253.668 174.96 253.176 174.96C252.725 174.96 252.384 175.04 252.143 175.211C251.902 175.381 251.782 175.602 251.782 175.903C251.782 176.234 251.942 176.485 252.273 176.655C252.604 176.826 253.116 176.996 253.818 177.177C254.53 177.357 255.112 177.538 255.574 177.729C256.035 177.919 256.437 178.21 256.768 178.611C257.109 179.003 257.279 179.534 257.289 180.176C257.289 180.748 257.129 181.25 256.818 181.701C256.507 182.152 256.055 182.504 255.474 182.754C254.892 183.005 254.21 183.136 253.427 183.136C252.645 183.136 251.902 182.995 251.26 182.704L251.27 182.684Z" fill="#82807E"/>
<path d="M58.6215 165.38L48.6498 149.048L38.2069 165.38H29.6096L44.2158 142.959L31.2951 122.193H39.9725L48.9608 136.99L58.15 122.193H67.1384L53.4751 142.688L67.2988 165.38H58.6215Z" fill="#3B3735"/>
<path d="M183.075 165.38H175.3V122.193H182.603V127.179C183.887 125.273 185.362 123.848 187.018 122.915C188.683 121.982 190.609 121.511 192.806 121.481V129.607C189.325 129.867 186.827 130.901 185.322 132.686C183.817 134.482 183.065 137.361 183.065 141.344V165.37L183.075 165.38Z" fill="#3B3735"/>
<path d="M206.158 117.137H198.463V108.229H206.158V117.137ZM198.463 165.39V122.203H206.158V165.39H198.463Z" fill="#3B3735"/>
<path d="M106.553 122.193V127.419C104.517 125.303 102.249 123.718 99.7615 122.664C97.2737 121.621 94.5549 121.089 91.5956 121.089C88.2951 121.089 85.3558 121.631 82.7777 122.715C80.1995 123.798 77.8221 125.483 75.6553 127.761C73.669 129.827 72.1341 132.225 71.0607 134.943C70.6494 135.997 70.3083 137.08 70.0575 138.184H78.414C79.1363 136.247 80.2698 134.502 81.8347 132.947C84.7239 130.068 88.2148 128.623 92.2977 128.623C96.3806 128.623 99.7112 130.138 102.6 133.158C105.489 136.177 106.934 139.809 106.934 144.052C106.934 148.035 105.479 151.506 102.56 154.475C99.6409 157.444 96.2704 158.929 92.4484 158.929C88.2651 158.929 84.7239 157.454 81.8247 154.495C79.5274 152.148 78.1532 149.359 77.6717 146.129H69.5459C70.0375 151.526 72.1442 156.1 75.8659 159.862C80.1595 164.196 85.5464 166.363 92.0369 166.363C94.8157 166.363 97.424 165.831 99.8717 164.778C102.319 163.714 104.537 162.149 106.523 160.083V165.379H114.378V122.193H106.523H106.553Z" fill="#3B3735"/>
<path d="M159.972 146.139C159.56 149.389 158.156 152.208 155.748 154.606C152.839 157.495 149.358 158.94 145.305 158.94C141.252 158.94 137.902 157.435 135.043 154.425C132.174 151.416 130.739 147.774 130.739 143.511C130.739 139.528 132.194 136.057 135.113 133.088C138.032 130.118 141.403 128.634 145.225 128.634C149.388 128.634 152.909 130.108 155.788 133.068C157.263 134.593 158.367 136.298 159.079 138.184H167.555C166.633 134.181 164.696 130.69 161.747 127.721C157.454 123.407 152.047 121.24 145.536 121.24C142.757 121.24 140.149 121.772 137.701 122.835C135.253 123.899 133.036 125.444 131.05 127.49V122.193H123.195V179.354H130.97V160.153C133.067 162.27 135.364 163.865 137.862 164.928C140.36 165.992 143.078 166.513 146.007 166.513C149.308 166.513 152.247 165.972 154.825 164.888C157.403 163.805 159.781 162.12 161.948 159.842C163.964 157.726 165.509 155.298 166.582 152.579C167.395 150.513 167.897 148.366 168.097 146.129H159.972V146.139Z" fill="#3B3735"/>
<path d="M221.968 137.822C222.65 135.997 223.683 134.351 225.058 132.897C227.796 130.008 231.177 128.563 235.21 128.563C239.243 128.563 242.653 129.988 245.362 132.847C246.746 134.311 247.779 135.977 248.462 137.832H256.778C256.517 136.829 256.176 135.826 255.765 134.843C254.631 132.124 252.996 129.677 250.879 127.5C248.702 125.303 246.275 123.638 243.596 122.514C240.918 121.39 237.998 120.829 234.859 120.829C231.929 120.829 229.1 121.461 226.382 122.715C223.663 123.969 221.215 125.764 219.039 128.092C217.022 130.208 215.497 132.596 214.464 135.254C214.133 136.087 213.862 136.95 213.642 137.822H221.968Z" fill="#3B3735"/>
<path d="M249.264 146.139C248.843 149.409 247.539 152.208 245.362 154.525C242.653 157.414 239.292 158.859 235.29 158.859C231.287 158.859 227.796 157.424 225.068 154.545C222.851 152.218 221.536 149.409 221.115 146.139H213.04C213.26 148.275 213.792 150.382 214.625 152.449C215.768 155.258 217.343 157.725 219.36 159.852C221.476 162.079 223.874 163.754 226.542 164.898C229.211 166.032 232.13 166.603 235.3 166.603C238.47 166.603 241.299 165.981 244.037 164.737C246.776 163.494 249.244 161.668 251.441 159.26C253.347 157.164 254.842 154.716 255.895 151.917C256.607 150.031 257.079 148.095 257.319 146.139H249.284H249.264Z" fill="#3B3735"/>
<path d="M157.685 143.781C157.685 150.502 152.227 155.96 145.506 155.96C138.785 155.96 133.328 150.512 133.328 143.781C133.328 137.05 138.785 131.603 145.506 131.603C152.227 131.603 157.685 137.06 157.685 143.781Z" fill="#CA3323"/>
<path d="M154.685 143.781C154.685 148.857 150.572 152.97 145.496 152.97C140.42 152.97 136.307 148.857 136.307 143.781C136.307 138.705 140.42 134.592 145.496 134.592C150.572 134.592 154.685 138.705 154.685 143.781Z" fill="#35312C"/>
<path d="M152.498 143.782C152.498 147.644 149.368 150.774 145.506 150.774C141.644 150.774 138.514 147.644 138.514 143.782C138.514 139.919 141.644 136.79 145.506 136.79C149.368 136.79 152.498 139.919 152.498 143.782Z" fill="white"/>
</svg>
