<svg  viewBox="0 0 286 286" fill="none" xmlns="http://www.w3.org/2000/svg">
<path d="M72.4429 124.31C68.9117 124.31 66.133 125.253 64.1066 127.139C62.1103 129.025 61.1172 131.804 61.1172 135.475V151.556C61.1172 154.014 61.6488 156.03 62.7222 157.595C63.8257 159.16 65.2301 160.304 66.9455 161.016C68.661 161.688 70.4768 162.029 72.4029 162.029C75.4726 162.029 78.0908 161.196 80.2576 159.521C82.4646 157.806 83.5682 155.157 83.5682 151.556V135.525C83.5682 132.034 82.585 129.286 80.6288 127.289C78.7027 125.293 75.9741 124.3 72.4529 124.3L72.4429 124.31ZM78.6926 150.814C78.6926 152.81 78.1009 154.375 76.9272 155.519C75.7836 156.622 74.2587 157.174 72.3326 157.174C70.4065 157.174 68.7714 156.622 67.6278 155.519C66.5243 154.415 65.9725 152.86 65.9725 150.864V136.549C65.9725 134.201 66.454 132.436 67.417 131.252C68.4101 130.038 70.0554 129.436 72.3326 129.436C74.6098 129.436 76.2349 130.038 77.1979 131.252C78.2011 132.466 78.6926 134.241 78.6926 136.599V150.814Z" fill="#54519E"/>
<path d="M105.688 141.303V141.253L105.738 141.143C107.163 140.18 108.106 139.076 108.567 137.832C109.029 136.548 109.259 135.194 109.259 133.77C109.259 130.74 108.316 128.423 106.43 126.818C104.574 125.213 102.187 124.41 99.2677 124.41H88.0422V161.828H99.9599C102.668 161.828 104.865 161.297 106.531 160.223C108.206 159.15 109.4 157.796 110.112 156.16C110.824 154.485 111.185 152.699 111.185 150.814C111.185 148.356 110.654 146.339 109.58 144.774C108.547 143.169 107.243 142.016 105.678 141.303H105.688ZM92.9076 129.225H97.8833C99.7692 129.225 101.214 129.596 102.217 130.349C103.21 131.101 103.712 132.435 103.712 134.362C103.712 136.288 103.19 137.622 102.157 138.475C101.164 139.327 99.649 139.759 97.6125 139.759H92.9076V129.225ZM103.762 156.01C102.518 156.903 100.682 157.344 98.2544 157.344H92.9076V144.463H98.8965C100.853 144.463 102.478 144.945 103.762 145.908C105.046 146.871 105.688 148.456 105.688 150.663C105.688 153.301 105.046 155.087 103.762 156.01Z" fill="#54519E"/>
<path d="M119.522 124.41H114.606V161.828H119.522V124.41Z" fill="#54519E"/>
<path d="M134.7 124.36H124.648V161.839H135.763C143.317 161.839 147.099 158.277 147.099 151.145V136.498C147.099 132.827 146.026 129.888 143.889 127.681C141.782 125.474 138.722 124.37 134.69 124.37L134.7 124.36ZM142.234 151.676C142.234 153.994 141.551 155.529 140.197 156.271C138.843 157.023 137.077 157.395 134.9 157.395H129.503V129.165H135.221C137.358 129.165 139.053 129.717 140.297 130.821C141.581 131.924 142.224 133.639 142.224 135.957V151.676H142.234Z" fill="#54519E"/>
<path d="M174.004 145.316C174.646 143.922 175.037 142.568 175.178 141.254C175.358 139.939 175.448 138.425 175.448 136.709C175.448 133.148 174.576 130.209 172.83 127.891C171.085 125.574 168.497 124.42 165.076 124.42H152.245V161.839H157.11V150.503H165.397C165.928 150.503 166.34 150.463 166.631 150.392L170.533 161.829H175.509L171.125 148.787C172.439 147.824 173.402 146.671 174.014 145.316H174.004ZM170.051 141.043C169.841 142.257 169.289 143.36 168.396 144.353C167.543 145.316 166.189 145.798 164.333 145.798H157.121V129.276H163.591C165.798 129.276 167.473 129.827 168.617 130.931C169.791 132.004 170.382 133.92 170.382 136.709C170.382 138.344 170.272 139.789 170.061 141.043H170.051Z" fill="#54519E"/>
<path d="M184.607 124.41H179.692V161.828H184.607V124.41Z" fill="#54519E"/>
<path d="M201.471 153.01L194.148 124.41H188.69L198.532 161.838H204.47L214.251 124.41H208.694L201.471 153.01Z" fill="#54519E"/>
<path d="M217.18 161.838H234.927V157.455H222.046V145.426H230.382V140.722H222.046V129.225H235.037V124.41H217.18V161.838Z" fill="#54519E"/>
<path d="M260.206 124.41V151.897L243.684 124.41H238.819V161.838H243.684V134.251L260.206 161.838H265.122V124.41H260.206Z" fill="#54519E"/>
<path d="M54.2353 124.31H42.3779L40.0606 159.331H37.5326V142.969H35.0547V124.31H23.147L20.6191 161.799H25.4644L27.7316 126.678H30.3097V142.969H32.6872V161.799H44.6952L46.9122 126.678H49.4402V142.969H51.8077V161.799H56.653V142.969H54.2353V124.31Z" fill="#54519E"/>
</svg>
