<svg  viewBox="0 0 286 286" fill="none" xmlns="http://www.w3.org/2000/svg">
<path d="M30.7197 188.844C30.6595 188.844 30.6294 188.834 30.5893 188.794C30.5491 188.754 30.5391 188.724 30.5391 188.683V175.853C30.5391 175.803 30.5491 175.763 30.5893 175.732C30.6294 175.692 30.6695 175.682 30.7197 175.682H38.7651C38.8253 175.682 38.8554 175.702 38.8855 175.722C38.9156 175.763 38.9356 175.793 38.9356 175.853V177.317H40.4204C40.4806 177.317 40.5206 177.338 40.5607 177.368C40.5908 177.388 40.6009 177.418 40.6009 177.478V182.273C40.6009 182.333 40.5808 182.353 40.5607 182.383C40.5206 182.424 40.4806 182.434 40.4204 182.434H39.066V183.898C39.066 183.948 39.0561 183.989 39.0159 184.019C38.9758 184.059 38.9357 184.069 38.9056 184.069H32.4552V188.683C32.4552 188.683 32.4552 188.744 32.4051 188.794C32.3649 188.834 32.3348 188.844 32.2747 188.844H30.7398H30.7197ZM32.5254 182.012H38.7049V177.538H32.5254V182.012Z" fill="#1D1D1B"/>
<path d="M53.02 188.793C53.02 188.793 52.9497 188.793 52.9096 188.743C52.8695 188.703 52.8594 188.673 52.8594 188.633V187.168H51.3747C51.3145 187.168 51.2845 187.148 51.2544 187.128C51.2142 187.088 51.2043 187.058 51.2043 187.018V185.533H49.5991C49.5991 185.533 49.5189 185.523 49.4787 185.483C49.4486 185.453 49.4387 185.433 49.4387 185.373V184.099H46.4793V188.633C46.4793 188.633 46.4793 188.693 46.4292 188.743C46.389 188.783 46.3489 188.793 46.2988 188.793H44.7639C44.7037 188.793 44.6736 188.783 44.6335 188.743C44.5933 188.703 44.5833 188.673 44.5833 188.633V175.802C44.5833 175.752 44.5933 175.712 44.6335 175.682C44.6736 175.642 44.7037 175.632 44.7639 175.632H52.8093C52.8695 175.632 52.8996 175.652 52.9297 175.672C52.9598 175.712 52.9798 175.742 52.9798 175.802V177.267H54.4545C54.5147 177.267 54.5549 177.277 54.595 177.317C54.6251 177.337 54.635 177.367 54.635 177.428V182.223C54.635 182.283 54.6151 182.303 54.595 182.333C54.5549 182.373 54.5147 182.383 54.4545 182.383H53.1002V183.848C53.1002 183.898 53.0902 183.938 53.0501 183.968C53.01 184.008 52.9698 184.018 52.9397 184.018H51.4249V185.413H52.8194C52.8796 185.413 52.9096 185.433 52.9397 185.453C52.9698 185.493 52.9898 185.523 52.9898 185.563V187.028H54.4646C54.5248 187.028 54.5549 187.038 54.595 187.078C54.6351 187.118 54.6451 187.148 54.6451 187.198V188.623C54.6451 188.623 54.6452 188.683 54.595 188.733C54.5549 188.773 54.5147 188.783 54.4646 188.783H53.03L53.02 188.793ZM46.5696 181.962H52.7491V177.488H46.5696V181.962Z" fill="#1D1D1B"/>
<path d="M58.9387 188.793C58.8785 188.793 58.8484 188.783 58.8083 188.743C58.7681 188.703 58.7581 188.673 58.7581 188.633V175.802C58.7581 175.752 58.7681 175.712 58.8083 175.682C58.8484 175.642 58.8785 175.632 58.9387 175.632H68.6293C68.6895 175.632 68.7196 175.642 68.7598 175.682C68.7999 175.722 68.8098 175.752 68.8098 175.802V188.633C68.8098 188.633 68.8099 188.693 68.7598 188.743C68.7196 188.783 68.6895 188.793 68.6293 188.793H58.9387ZM60.7444 186.837H66.8135V177.578H60.7444V186.837Z" fill="#1D1D1B"/>
<path d="M74.7587 188.794C74.6985 188.794 74.6685 188.774 74.6384 188.754C74.5982 188.713 74.5881 188.683 74.5881 188.643V187.179H73.1035C73.0433 187.179 73.0132 187.169 72.9731 187.128C72.9329 187.088 72.9229 187.058 72.9229 187.018V177.327C72.9229 177.327 72.9229 177.267 72.9731 177.217C73.0132 177.177 73.0533 177.167 73.1035 177.167H74.4778V175.813C74.4778 175.763 74.4879 175.722 74.528 175.692C74.5681 175.652 74.6083 175.642 74.6384 175.642H81.1489C81.2091 175.642 81.2392 175.662 81.2693 175.682C81.2994 175.722 81.3194 175.752 81.3194 175.813V177.277H82.8042C82.8644 177.277 82.9044 177.287 82.9445 177.327C82.9746 177.348 82.9847 177.378 82.9847 177.438V179.745C82.9847 179.805 82.9646 179.825 82.9445 179.855C82.9044 179.886 82.8644 179.906 82.8042 179.906H81.3696C81.3696 179.906 81.2893 179.896 81.2492 179.855C81.2191 179.825 81.2091 179.805 81.2091 179.745V177.488H74.8389V186.958H80.9984V184.029H78.0492C78.0492 184.029 77.9788 184.029 77.9387 183.978C77.8986 183.938 77.8886 183.908 77.8886 183.858V182.343C77.8886 182.293 77.8986 182.253 77.9387 182.223C77.9788 182.183 78.0191 182.173 78.0492 182.173H82.8042C82.8644 182.173 82.8945 182.183 82.9346 182.223C82.9747 182.263 82.9847 182.293 82.9847 182.343V187.118C82.9847 187.118 82.9848 187.179 82.9346 187.229C82.8945 187.269 82.8644 187.279 82.8042 187.279H81.4498V188.653C81.4498 188.653 81.4499 188.713 81.3997 188.764C81.3596 188.804 81.3195 188.814 81.2894 188.814H74.7587V188.794Z" fill="#1D1D1B"/>
<path d="M95.5646 188.793C95.5646 188.793 95.4944 188.793 95.4543 188.743C95.4142 188.703 95.4041 188.673 95.4041 188.633V187.168H93.9194C93.8592 187.168 93.8291 187.148 93.799 187.128C93.7589 187.088 93.7488 187.058 93.7488 187.018V185.533H92.1438C92.1438 185.533 92.0635 185.523 92.0234 185.483C91.9933 185.453 91.9832 185.433 91.9832 185.373V184.099H89.0239V188.633C89.0239 188.633 89.0239 188.693 88.9737 188.743C88.9336 188.783 88.9035 188.793 88.8433 188.793H87.3086C87.2484 188.793 87.2183 188.783 87.1781 188.743C87.138 188.703 87.1279 188.673 87.1279 188.633V175.802C87.1279 175.752 87.138 175.712 87.1781 175.682C87.2183 175.642 87.2484 175.632 87.3086 175.632H95.354C95.4142 175.632 95.4443 175.652 95.4744 175.672C95.5045 175.712 95.5245 175.742 95.5245 175.802V177.267H97.0091C97.0693 177.267 97.1095 177.277 97.1496 177.317C97.1797 177.337 97.1898 177.367 97.1898 177.428V182.223C97.1898 182.283 97.1697 182.303 97.1496 182.333C97.1095 182.373 97.0693 182.383 97.0091 182.383H95.6549V183.848C95.6549 183.898 95.6449 183.938 95.6048 183.968C95.5647 184.008 95.5244 184.018 95.4943 184.018H93.9795V185.413H95.374C95.4342 185.413 95.4642 185.433 95.4943 185.453C95.5244 185.493 95.5445 185.523 95.5445 185.563V187.028H97.0292C97.0894 187.028 97.1195 187.038 97.1596 187.078C97.1998 187.118 97.2098 187.148 97.2098 187.198V188.623C97.2098 188.623 97.2098 188.683 97.1596 188.733C97.1195 188.773 97.0794 188.783 97.0292 188.783H95.5948L95.5646 188.793ZM89.1142 181.962H95.2938V177.488H89.1142V181.962Z" fill="#1D1D1B"/>
<path d="M109.649 188.793C109.589 188.793 109.559 188.783 109.519 188.743C109.479 188.703 109.469 188.673 109.469 188.633V184.099H103.199V188.633C103.199 188.633 103.199 188.693 103.149 188.743C103.108 188.783 103.068 188.793 103.018 188.793H101.483C101.423 188.793 101.393 188.783 101.353 188.743C101.313 188.703 101.303 188.673 101.303 188.633V177.317C101.303 177.317 101.303 177.257 101.353 177.207C101.393 177.167 101.423 177.157 101.483 177.157H102.858V175.802C102.858 175.752 102.868 175.712 102.908 175.682C102.948 175.642 102.988 175.632 103.018 175.632H109.529C109.589 175.632 109.619 175.652 109.649 175.672C109.679 175.712 109.699 175.742 109.699 175.802V177.267H111.184C111.244 177.267 111.284 177.277 111.324 177.317C111.354 177.337 111.365 177.367 111.365 177.428V188.633C111.365 188.633 111.365 188.693 111.314 188.743C111.274 188.783 111.234 188.793 111.184 188.793H109.669H109.649ZM103.289 181.962H109.469V177.488H103.289V181.962Z" fill="#1D1D1B"/>
<path d="M123.834 188.793C123.774 188.793 123.744 188.783 123.703 188.743C123.663 188.703 123.653 188.673 123.653 188.633V179.223H122.319V180.477C122.319 180.537 122.309 180.567 122.269 180.608C122.239 180.638 122.219 180.648 122.149 180.648H118.948C118.948 180.648 118.878 180.648 118.838 180.598C118.798 180.557 118.788 180.527 118.788 180.477V179.123H117.384V188.643C117.384 188.643 117.384 188.703 117.333 188.753C117.293 188.793 117.253 188.803 117.203 188.803H115.668C115.608 188.803 115.578 188.793 115.538 188.753C115.498 188.713 115.488 188.683 115.488 188.643V175.812C115.488 175.762 115.498 175.722 115.538 175.692C115.578 175.652 115.608 175.642 115.668 175.642H117.203C117.263 175.642 117.293 175.652 117.333 175.692C117.373 175.732 117.384 175.762 117.384 175.812V177.167H118.758C118.818 177.167 118.848 177.187 118.878 177.207C118.908 177.247 118.928 177.277 118.928 177.317V178.782H121.998V177.317C121.998 177.317 121.998 177.257 122.048 177.207C122.088 177.167 122.129 177.157 122.159 177.157H123.653V175.802C123.653 175.752 123.663 175.712 123.703 175.682C123.744 175.642 123.774 175.632 123.834 175.632H125.359C125.419 175.632 125.449 175.642 125.489 175.682C125.529 175.722 125.539 175.752 125.539 175.802V188.633C125.539 188.633 125.539 188.693 125.489 188.743C125.449 188.783 125.419 188.793 125.359 188.793H123.834Z" fill="#1D1D1B"/>
<path d="M138.009 188.793C137.948 188.793 137.918 188.783 137.878 188.743C137.838 188.703 137.828 188.673 137.828 188.633V179.223H136.494V180.477C136.494 180.537 136.484 180.567 136.444 180.608C136.414 180.638 136.394 180.648 136.323 180.648H133.123C133.123 180.648 133.053 180.648 133.013 180.598C132.973 180.557 132.963 180.527 132.963 180.477V179.123H131.558V188.643C131.558 188.643 131.558 188.703 131.508 188.753C131.468 188.793 131.438 188.803 131.378 188.803H129.843C129.783 188.803 129.753 188.793 129.713 188.753C129.672 188.713 129.662 188.683 129.662 188.643V175.812C129.662 175.762 129.672 175.722 129.713 175.692C129.753 175.652 129.783 175.642 129.843 175.642H131.378C131.438 175.642 131.468 175.652 131.508 175.692C131.548 175.732 131.558 175.762 131.558 175.812V177.167H132.933C132.993 177.167 133.023 177.187 133.053 177.207C133.083 177.247 133.103 177.277 133.103 177.317V178.782H136.173V177.317C136.173 177.317 136.173 177.257 136.223 177.207C136.263 177.167 136.303 177.157 136.333 177.157H137.828V175.802C137.828 175.752 137.838 175.712 137.878 175.682C137.918 175.642 137.948 175.632 138.009 175.632H139.534C139.594 175.632 139.624 175.642 139.664 175.682C139.704 175.722 139.714 175.752 139.714 175.802V188.633C139.714 188.633 139.714 188.693 139.664 188.743C139.624 188.783 139.594 188.793 139.534 188.793H138.009Z" fill="#1D1D1B"/>
<path d="M152.374 188.793C152.314 188.793 152.284 188.783 152.244 188.743C152.203 188.703 152.193 188.673 152.193 188.633V184.099H145.924V188.633C145.924 188.633 145.924 188.693 145.874 188.743C145.833 188.783 145.803 188.793 145.743 188.793H144.208C144.148 188.793 144.118 188.783 144.078 188.743C144.038 188.703 144.028 188.673 144.028 188.633V177.317C144.028 177.317 144.028 177.257 144.078 177.207C144.118 177.167 144.148 177.157 144.208 177.157H145.583V175.802C145.583 175.752 145.593 175.712 145.633 175.682C145.673 175.642 145.713 175.632 145.743 175.632H152.254C152.314 175.632 152.344 175.652 152.374 175.672C152.404 175.712 152.424 175.742 152.424 175.802V177.267H153.899C153.959 177.267 153.999 177.277 154.039 177.317C154.069 177.337 154.079 177.367 154.079 177.428V188.633C154.079 188.633 154.079 188.693 154.029 188.743C153.989 188.783 153.959 188.793 153.899 188.793H152.384H152.374ZM146.014 181.962H152.193V177.488H146.014V181.962Z" fill="#1D1D1B"/>
<path d="M160.981 188.793C160.981 188.793 160.911 188.793 160.871 188.743C160.831 188.703 160.821 188.673 160.821 188.633V177.478H157.781C157.781 177.478 157.701 177.468 157.661 177.428C157.631 177.397 157.621 177.377 157.621 177.317V175.802C157.621 175.752 157.631 175.712 157.671 175.682C157.711 175.642 157.751 175.632 157.781 175.632H165.847C165.847 175.632 165.917 175.632 165.957 175.682C165.997 175.722 166.007 175.752 166.007 175.802V177.317C166.007 177.377 165.987 177.397 165.967 177.428C165.927 177.468 165.897 177.478 165.847 177.478H162.807V188.633C162.807 188.633 162.807 188.693 162.757 188.743C162.717 188.783 162.677 188.793 162.647 188.793H160.981Z" fill="#1D1D1B"/>
<path d="M169.679 188.794C169.679 188.794 169.609 188.794 169.569 188.744C169.528 188.703 169.518 188.673 169.518 188.633V187.098C169.518 187.098 169.518 187.038 169.569 186.988C169.609 186.948 169.649 186.938 169.679 186.938H172.628V177.468H169.679C169.679 177.468 169.599 177.458 169.558 177.418C169.528 177.388 169.518 177.368 169.518 177.307V175.793C169.518 175.742 169.528 175.702 169.569 175.672C169.609 175.632 169.649 175.622 169.679 175.622H177.744C177.744 175.622 177.815 175.622 177.855 175.672C177.895 175.712 177.905 175.742 177.905 175.793V177.307C177.905 177.368 177.885 177.388 177.865 177.418C177.825 177.458 177.794 177.468 177.744 177.468H174.815V186.938H177.744C177.744 186.938 177.815 186.938 177.855 186.988C177.895 187.028 177.905 187.058 177.905 187.098V188.633C177.905 188.633 177.905 188.693 177.855 188.744C177.815 188.784 177.774 188.794 177.744 188.794H169.679Z" fill="#1D1D1B"/>
<path d="M183.643 188.794C183.583 188.794 183.553 188.774 183.523 188.754C183.482 188.713 183.472 188.683 183.472 188.643V187.179H181.988C181.928 187.179 181.897 187.169 181.857 187.128C181.817 187.088 181.807 187.058 181.807 187.018V177.327C181.807 177.327 181.807 177.267 181.857 177.217C181.897 177.177 181.928 177.167 181.988 177.167H183.362V175.813C183.362 175.763 183.372 175.722 183.412 175.692C183.452 175.652 183.492 175.642 183.523 175.642H190.033C190.093 175.642 190.123 175.662 190.154 175.682C190.194 175.722 190.204 175.752 190.204 175.813V177.277H191.688C191.749 177.277 191.789 177.287 191.829 177.327C191.859 177.348 191.869 177.378 191.869 177.438V178.862C191.869 178.923 191.849 178.943 191.829 178.973C191.789 179.003 191.749 179.023 191.688 179.023H190.254C190.254 179.023 190.174 179.013 190.133 178.973C190.103 178.943 190.093 178.923 190.093 178.862V177.488H183.723V186.958H189.993V185.584C189.993 185.584 189.993 185.523 190.043 185.473C190.083 185.433 190.113 185.423 190.174 185.423H191.698C191.759 185.423 191.789 185.433 191.829 185.473C191.869 185.513 191.879 185.543 191.879 185.584V187.118C191.879 187.118 191.879 187.179 191.829 187.229C191.789 187.269 191.759 187.279 191.698 187.279H190.344V188.653C190.344 188.653 190.344 188.713 190.294 188.764C190.254 188.804 190.214 188.814 190.184 188.814H183.653L183.643 188.794Z" fill="#1D1D1B"/>
<path d="M204.168 188.793C204.108 188.793 204.077 188.783 204.037 188.743C203.997 188.703 203.987 188.673 203.987 188.633V184.099H197.717V188.633C197.717 188.633 197.717 188.693 197.667 188.743C197.627 188.783 197.597 188.793 197.537 188.793H196.002C195.942 188.793 195.912 188.783 195.871 188.743C195.831 188.703 195.821 188.673 195.821 188.633V177.317C195.821 177.317 195.821 177.257 195.871 177.207C195.912 177.167 195.942 177.157 196.002 177.157H197.376V175.802C197.376 175.752 197.386 175.712 197.426 175.682C197.467 175.642 197.507 175.632 197.537 175.632H204.047C204.108 175.632 204.138 175.652 204.168 175.672C204.198 175.712 204.218 175.742 204.218 175.802V177.267H205.703C205.763 177.267 205.803 177.277 205.843 177.317C205.873 177.337 205.883 177.367 205.883 177.428V188.633C205.883 188.633 205.883 188.693 205.833 188.743C205.793 188.783 205.763 188.793 205.703 188.793H204.178H204.168ZM197.808 181.962H203.987V177.488H197.808V181.962Z" fill="#1D1D1B"/>
<path d="M210.157 188.794C210.157 188.794 210.107 188.794 210.077 188.753C210.047 188.723 210.037 188.703 210.037 188.683V186.617C210.037 186.617 210.037 186.577 210.077 186.546C210.107 186.516 210.127 186.516 210.157 186.516H212.384C212.384 186.516 212.434 186.516 212.464 186.546C212.494 186.577 212.504 186.597 212.504 186.617V188.683C212.504 188.683 212.504 188.723 212.464 188.753C212.434 188.784 212.414 188.794 212.384 188.794H210.157Z" fill="#52AE32"/>
<path d="M218.403 188.794C218.343 188.794 218.313 188.774 218.282 188.754C218.242 188.713 218.232 188.683 218.232 188.643V187.179H216.758C216.697 187.179 216.667 187.169 216.627 187.128C216.587 187.088 216.577 187.058 216.577 187.018V177.327C216.577 177.327 216.577 177.267 216.627 177.217C216.667 177.177 216.697 177.167 216.758 177.167H218.132V175.813C218.132 175.763 218.142 175.722 218.182 175.692C218.222 175.652 218.262 175.642 218.293 175.642H224.803C224.863 175.642 224.893 175.662 224.923 175.682C224.964 175.722 224.974 175.752 224.974 175.813V177.277H226.458C226.519 177.277 226.559 177.287 226.599 177.327C226.629 177.348 226.639 177.378 226.639 177.438V178.862C226.639 178.923 226.619 178.943 226.599 178.973C226.559 179.003 226.519 179.023 226.458 179.023H225.024C225.024 179.023 224.944 179.013 224.903 178.973C224.873 178.943 224.863 178.923 224.863 178.862V177.488H218.493V186.958H224.763V185.584C224.763 185.584 224.763 185.523 224.813 185.473C224.853 185.433 224.883 185.423 224.944 185.423H226.468C226.529 185.423 226.559 185.433 226.599 185.473C226.639 185.513 226.649 185.543 226.649 185.584V187.118C226.649 187.118 226.649 187.179 226.599 187.229C226.559 187.269 226.529 187.279 226.468 187.279H225.114V188.653C225.114 188.653 225.114 188.713 225.064 188.764C225.024 188.804 224.984 188.814 224.954 188.814H218.423L218.403 188.794Z" fill="#52AE32"/>
<path d="M230.942 188.793C230.882 188.793 230.852 188.783 230.812 188.743C230.772 188.703 230.762 188.673 230.762 188.633V175.802C230.762 175.752 230.772 175.712 230.812 175.682C230.852 175.642 230.882 175.632 230.942 175.632H240.633C240.693 175.632 240.723 175.642 240.764 175.682C240.804 175.722 240.814 175.752 240.814 175.802V188.633C240.814 188.633 240.814 188.693 240.764 188.743C240.723 188.783 240.693 188.793 240.633 188.793H230.942ZM232.748 186.837H238.817V177.578H232.748V186.837Z" fill="#52AE32"/>
<path d="M253.293 188.793C253.233 188.793 253.203 188.783 253.163 188.743C253.123 188.703 253.112 188.673 253.112 188.633V179.223H251.778V180.477C251.778 180.537 251.768 180.567 251.728 180.608C251.698 180.638 251.678 180.648 251.608 180.648H248.408C248.408 180.648 248.337 180.648 248.297 180.598C248.257 180.557 248.247 180.527 248.247 180.477V179.123H246.843V188.643C246.843 188.643 246.843 188.703 246.793 188.753C246.752 188.793 246.722 188.803 246.662 188.803H245.127C245.067 188.803 245.037 188.793 244.997 188.753C244.957 188.713 244.947 188.683 244.947 188.643V175.812C244.947 175.762 244.957 175.722 244.997 175.692C245.037 175.652 245.067 175.642 245.127 175.642H246.662C246.722 175.642 246.752 175.652 246.793 175.692C246.833 175.732 246.843 175.762 246.843 175.812V177.167H248.217C248.277 177.167 248.307 177.187 248.337 177.207C248.378 177.247 248.388 177.277 248.388 177.317V178.782H251.457V177.317C251.457 177.317 251.457 177.257 251.507 177.207C251.548 177.167 251.588 177.157 251.618 177.157H253.112V175.802C253.112 175.752 253.123 175.712 253.163 175.682C253.203 175.642 253.233 175.632 253.293 175.632H254.808C254.868 175.632 254.898 175.642 254.938 175.682C254.978 175.722 254.988 175.752 254.988 175.802V188.633C254.988 188.633 254.988 188.693 254.938 188.743C254.898 188.783 254.868 188.793 254.808 188.793H253.293Z" fill="#52AE32"/>
<path d="M159.637 150.503C159.406 150.503 159.256 150.442 159.105 150.292C158.935 150.121 158.905 150.011 158.905 149.871L159.015 98.5784C159.015 98.3577 159.065 98.2273 159.216 98.0868C159.366 97.9364 159.517 97.8762 159.747 97.8762L191.919 97.9464C192.17 97.9464 192.28 98.0166 192.391 98.127C192.531 98.2674 192.581 98.4179 192.581 98.6486V104.497H198.48C198.721 104.507 198.891 104.567 199.042 104.718C199.152 104.818 199.212 104.918 199.212 105.149L199.172 124.31C199.172 124.54 199.112 124.641 199.001 124.741C198.851 124.882 198.68 124.942 198.44 124.942H193.023V130.78C193.013 131.001 192.952 131.131 192.812 131.272C192.641 131.442 192.511 131.482 192.35 131.482L166.559 131.432L166.519 149.901C166.519 150.041 166.489 150.161 166.318 150.322C166.168 150.472 166.017 150.533 165.787 150.533H159.637V150.503ZM166.93 123.176L191.628 123.226L191.668 105.32L166.97 105.27L166.93 123.176Z" fill="#1D1D1B"/>
<path d="M77.3272 150.422C76.7453 150.422 76.2739 149.951 76.2739 149.369V143.701C76.284 143.119 76.7554 142.648 77.3372 142.648H82.955V137.261C82.965 136.679 83.4365 136.207 84.0184 136.207H89.6361V130.82C89.6461 130.238 90.1177 129.767 90.6995 129.767H96.3173V124.38C96.3273 123.798 96.7987 123.327 97.3806 123.327H102.998V117.94C103.008 117.358 103.48 116.886 104.062 116.886H109.679V111.499C109.689 110.917 110.161 110.446 110.743 110.446H116.361V105.059C116.371 104.477 116.842 104.005 117.424 104.005H122.43V98.6184C122.44 98.0366 122.911 97.5651 123.493 97.5651H129.161C129.743 97.5751 130.214 98.0466 130.214 98.6285V104.296C130.204 104.878 129.733 105.35 129.151 105.35H124.145V110.737C124.135 111.319 123.664 111.79 123.082 111.79H117.464V117.177C117.454 117.759 116.983 118.23 116.401 118.23H110.783V123.617C110.773 124.199 110.301 124.671 109.72 124.671H104.102V130.058C104.092 130.64 103.62 131.111 103.038 131.111H97.4207V136.498C97.4107 137.08 96.9393 137.552 96.3574 137.552H90.7396V142.939C90.7295 143.52 90.2581 143.992 89.6763 143.992H84.0585V149.379C84.0485 149.961 83.577 150.432 82.9951 150.432H77.3272V150.422Z" fill="#52AE32"/>
<path d="M31.2614 150.332C30.6795 150.332 30.208 149.86 30.208 149.279V143.611C30.218 143.029 30.6896 142.557 31.2714 142.557H36.8892V137.17C36.8992 136.588 37.3706 136.117 37.9525 136.117H43.5702V130.73C43.5802 130.148 44.0518 129.677 44.6336 129.677H50.2513V124.29C50.2614 123.708 50.7329 123.236 51.3148 123.236H56.9325V117.849C56.9425 117.267 57.414 116.796 57.9958 116.796H63.6136V111.409C63.6237 110.827 64.0951 110.355 64.6769 110.355H70.2947V104.968C70.3047 104.387 70.7763 103.915 71.3581 103.915H76.3639V98.5281C76.3739 97.9463 76.8454 97.4748 77.4272 97.4748H83.0951C83.677 97.4848 84.1485 97.9563 84.1485 98.5381V104.206C84.1385 104.788 83.6669 105.259 83.0851 105.259H78.0793V110.646C78.0693 111.228 77.5978 111.7 77.016 111.7H71.3983V117.087C71.3882 117.669 70.9167 118.14 70.3348 118.14H64.7171V123.527C64.7071 124.109 64.2355 124.58 63.6537 124.58H58.036V129.967C58.0259 130.549 57.5545 131.021 56.9727 131.021H51.3548V136.408C51.3448 136.99 50.8733 137.461 50.2915 137.461H44.6738V142.848C44.6637 143.43 44.1922 143.902 43.6104 143.902H37.9926V149.289C37.9826 149.87 37.511 150.342 36.9292 150.342H31.2614V150.332Z" fill="#52AE32"/>
<path d="M222.325 150.443C222.074 150.443 221.964 150.372 221.864 150.262C221.723 150.111 221.673 149.991 221.673 149.811V143.962H215.775C215.544 143.952 215.393 143.892 215.243 143.741C215.072 143.571 215.042 143.46 215.042 143.32L215.122 104.568C215.122 104.427 215.153 104.307 215.323 104.146C215.474 103.996 215.624 103.936 215.855 103.936H221.342V98.5184C221.352 98.3077 221.412 98.1673 221.553 98.0268C221.723 97.8563 221.854 97.8262 222.014 97.8262L248.037 97.8764C248.287 97.8764 248.398 97.9466 248.498 98.0569C248.638 98.2074 248.689 98.3479 248.689 98.5786V104.427H254.597C254.838 104.437 255.009 104.497 255.159 104.638C255.269 104.738 255.33 104.838 255.33 105.069L255.31 114.298C255.31 114.529 255.249 114.629 255.139 114.73C254.988 114.87 254.818 114.93 254.577 114.93H248.859C248.658 114.92 248.528 114.86 248.368 114.72C248.257 114.619 248.197 114.519 248.197 114.288L248.217 105.27L222.727 105.22L222.646 143.069L247.274 143.119L247.294 131.412L235.517 131.392C235.367 131.392 235.236 131.352 235.055 131.182C234.905 131.031 234.855 130.911 234.855 130.69V124.631C234.865 124.42 234.925 124.28 235.065 124.139C235.246 123.969 235.377 123.929 235.527 123.929L254.537 123.969C254.768 123.969 254.918 124.029 255.069 124.18C255.219 124.32 255.269 124.46 255.269 124.671L255.229 143.761C255.229 143.902 255.199 144.022 255.029 144.183C254.878 144.333 254.728 144.383 254.497 144.383H249.08V149.871C249.07 150.011 249.04 150.132 248.869 150.292C248.689 150.463 248.558 150.503 248.408 150.503L222.315 150.453L222.325 150.443Z" fill="#1D1D1B"/>
</svg>
