<svg  viewBox="0 0 287 286" fill="none" xmlns="http://www.w3.org/2000/svg">
<path fill-rule="evenodd" clip-rule="evenodd" d="M54.1987 124.169H61.1807V145.617C61.1807 151.155 59.6961 155.388 56.7066 158.327C53.7573 161.257 49.6845 162.721 44.478 162.721C39.2716 162.721 35.1284 161.257 32.139 158.327C29.1997 155.388 27.7148 151.155 27.7148 145.617V124.169H34.8073V145.346C34.8073 149.249 35.64 152.098 37.3153 153.863C39.0307 155.639 41.4282 156.522 44.528 156.522C47.6278 156.522 50.0054 155.639 51.6807 153.863C53.356 152.088 54.1887 149.249 54.1887 145.346V124.169H54.1987ZM98.0372 149.901L76.9706 124.169H71.1221V162.18H78.1643V136.448L99.2309 162.18H105.079V124.169H98.0372V149.901ZM115.322 162.18H122.414V124.169H115.322V162.18ZM140.993 133.569C142.227 132.365 143.672 131.452 145.307 130.79C146.982 130.138 148.818 129.817 150.824 129.817C152.831 129.817 154.686 130.199 156.392 130.961C158.097 131.683 159.642 132.787 161.026 134.271L165.611 129.978C163.835 127.881 161.648 126.306 159.06 125.253C156.482 124.169 153.623 123.628 150.493 123.628C147.544 123.628 144.825 124.119 142.357 125.092C139.879 126.035 137.723 127.39 135.867 129.165C134.011 130.911 132.566 132.967 131.553 135.355C130.54 137.742 130.018 140.351 130.018 143.18C130.018 146.009 130.53 148.607 131.553 151.004C132.566 153.392 133.991 155.478 135.817 157.244C137.672 158.979 139.839 160.334 142.307 161.317C144.815 162.26 147.524 162.721 150.443 162.721C153.603 162.721 156.482 162.18 159.06 161.096C161.648 160.013 163.835 158.438 165.611 156.371L161.026 152.028C159.642 153.542 158.087 154.686 156.392 155.438C154.676 156.161 152.831 156.522 150.824 156.522C148.818 156.522 146.982 156.201 145.307 155.549C143.672 154.897 142.227 153.974 140.993 152.77C139.789 151.576 138.846 150.172 138.154 148.536C137.502 146.911 137.171 145.116 137.171 143.159C137.171 141.203 137.492 139.408 138.154 137.782C138.846 136.157 139.789 134.743 140.993 133.549V133.569ZM208.516 135.415C209.54 137.762 210.051 140.361 210.051 143.18C210.051 145.998 209.54 148.607 208.516 151.004C207.503 153.392 206.059 155.448 204.203 157.194C202.347 158.929 200.16 160.284 197.652 161.267C195.174 162.24 192.476 162.731 189.526 162.731C186.577 162.731 183.798 162.24 181.28 161.267C178.772 160.284 176.585 158.929 174.73 157.194C172.874 155.418 171.429 153.352 170.416 151.004C169.403 148.617 168.891 146.009 168.891 143.18C168.891 140.351 169.393 137.762 170.416 135.415C171.429 133.027 172.874 130.961 174.73 129.225C176.585 127.45 178.772 126.075 181.28 125.092C183.788 124.119 186.527 123.628 189.466 123.628C192.405 123.628 195.174 124.119 197.652 125.092C200.16 126.075 202.347 127.45 204.203 129.225C206.059 130.961 207.503 133.027 208.516 135.415ZM202.889 143.18C202.889 141.223 202.548 139.458 201.855 137.853C201.203 136.228 200.27 134.813 199.077 133.619C197.873 132.385 196.448 131.442 194.813 130.79C193.178 130.138 191.392 129.817 189.466 129.817C187.54 129.817 185.744 130.138 184.109 130.79C182.514 131.442 181.09 132.385 179.856 133.619C178.652 134.813 177.709 136.218 177.017 137.853C176.365 139.448 176.034 141.223 176.034 143.18C176.034 145.136 176.355 146.871 177.017 148.506C177.709 150.132 178.652 151.556 179.856 152.79C181.06 153.994 182.474 154.907 184.109 155.569C185.744 156.221 187.53 156.542 189.466 156.542C191.402 156.542 193.178 156.221 194.813 155.569C196.448 154.917 197.863 153.994 199.077 152.79C200.28 151.556 201.203 150.152 201.855 148.557C202.548 146.931 202.889 145.136 202.889 143.18ZM259.327 124.169H253.478L238.561 149.359L223.403 124.169H217.555V162.18H224.326V137.321L236.886 157.836H240.046L252.606 137.01L252.666 162.18H259.377L259.327 124.169Z" fill="black"/>
</svg>
