<svg  viewBox="0 0 201 201" fill="none" xmlns="http://www.w3.org/2000/svg">
<path d="M94.5469 100.844C94.5469 106.01 96.0718 111.056 98.9309 115.359C101.79 119.653 105.863 123.004 110.618 124.98C115.373 126.956 120.619 127.478 125.665 126.465C130.721 125.461 135.356 122.974 139.008 119.322C142.649 115.67 145.137 111.016 146.14 105.95C147.143 100.884 146.632 95.6271 144.655 90.862C142.679 86.0869 139.349 82.014 135.065 79.1349C130.782 76.2658 125.746 74.731 120.589 74.731C113.678 74.731 107.057 77.4796 102.171 82.3751C97.2857 87.2706 94.5371 93.9116 94.5371 100.844H94.5469Z" fill="#FAB609"/>
<path d="M124.271 100.844C124.271 106.01 125.795 111.056 128.655 115.359C131.514 119.653 135.587 123.004 140.342 124.98C145.097 126.956 150.343 127.478 155.389 126.465C160.445 125.461 165.08 122.974 168.731 119.322C172.373 115.67 174.861 111.016 175.864 105.95C176.867 100.884 176.355 95.6271 174.379 90.862C172.403 86.0869 169.072 82.014 164.789 79.1349C160.505 76.2658 155.469 74.731 150.313 74.731C143.401 74.731 136.78 77.4796 131.895 82.3751C127.01 87.2706 124.261 93.9116 124.261 100.844H124.271Z" fill="#5176B9"/>
<path d="M155.39 101.205C155.39 104.645 156.413 108.016 158.319 110.875C160.225 113.734 162.943 115.971 166.113 117.285C169.284 118.6 172.785 118.951 176.145 118.279C179.516 117.606 182.606 115.951 185.043 113.514C187.471 111.076 189.126 107.976 189.798 104.595C190.471 101.215 190.13 97.7136 188.805 94.5335C187.491 91.3535 185.264 88.6349 182.405 86.7189C179.546 84.8028 176.195 83.7795 172.755 83.7795C168.15 83.7795 163.726 85.6154 160.476 88.8757C157.215 92.1461 155.39 96.5699 155.39 101.185V101.205Z" fill="#7FBA28"/>
<path d="M58.3926 100.863C58.3926 107.294 60.2885 113.574 63.8498 118.921C67.411 124.267 72.477 128.431 78.3957 130.898C84.3145 133.356 90.835 133.998 97.1249 132.744C103.415 131.49 109.193 128.391 113.727 123.846C118.262 119.302 121.352 113.513 122.596 107.203C123.849 100.894 123.207 94.3629 120.75 88.4241C118.292 82.4854 114.139 77.4094 108.812 73.8381C103.485 70.2668 97.2151 68.3607 90.8048 68.3607C82.2077 68.3607 73.9718 71.7916 67.8926 77.8808C61.8134 83.97 58.4026 92.2362 58.3926 100.853V100.863Z" fill="#1777BD"/>
<path d="M77.7137 100.844C77.7137 106.01 76.1888 111.056 73.3297 115.359C70.4707 119.653 66.3979 123.004 61.6429 124.98C56.8879 126.956 51.6413 127.478 46.5953 126.465C41.5394 125.461 36.9047 122.974 33.2531 119.322C29.6116 115.67 27.1236 111.016 26.1205 105.95C25.1173 100.884 25.6289 95.6271 27.6051 90.862C29.5814 86.0869 32.912 82.014 37.1955 79.1349C41.4791 76.2658 46.5149 74.731 51.6712 74.731C58.583 74.731 65.2041 77.4796 70.0895 82.3751C74.975 87.2706 77.7238 93.9116 77.7238 100.844H77.7137Z" fill="#944191"/>
<path d="M44.8299 100.843C44.8299 104.284 43.8165 107.655 41.9005 110.524C39.9944 113.393 37.2758 115.62 34.1058 116.944C30.9358 118.258 27.4448 118.609 24.0741 117.937C20.7035 117.265 17.6138 115.61 15.1761 113.172C12.7484 110.734 11.0932 107.635 10.4211 104.254C9.74896 100.873 10.09 97.3721 11.4042 94.1921C12.7183 91.012 14.9453 88.2935 17.8043 86.3775C20.6633 84.4614 24.014 83.4381 27.4549 83.4381C32.0595 83.4381 36.4734 85.2739 39.7337 88.5342C42.994 91.7945 44.8199 96.2285 44.8199 100.843H44.8299Z" fill="#E52026"/>
<path d="M44.8298 100.843C44.8298 96.9812 43.5456 93.2293 41.1882 90.1696C38.8307 87.12 35.5204 84.9331 31.7886 83.9701C27.806 88.685 25.6089 94.6538 25.6089 100.833C25.6089 107.013 27.796 112.992 31.7886 117.697C35.5204 116.734 38.8307 114.557 41.1882 111.497C43.5456 108.447 44.8298 104.685 44.8298 100.823V100.843Z" fill="#E71F83"/>
<path d="M61.9839 86.0166C59.4559 87.5715 57.3793 89.7485 55.9247 92.3467C54.4801 94.9348 53.7178 97.8641 53.7178 100.833C53.7178 103.803 54.4703 106.732 55.9149 109.32C57.3595 111.919 59.4358 114.095 61.9538 115.66C59.6164 111.066 58.3927 105.99 58.4027 100.833C58.4027 95.6772 59.6365 90.6011 61.9839 86.0166Z" fill="#99599F"/>
<path d="M146.641 100.844C146.641 96.6303 145.628 92.4773 143.682 88.7455C141.736 85.0137 138.917 81.8035 135.456 79.4059C132.005 81.8135 129.186 85.0137 127.24 88.7455C125.294 92.4773 124.271 96.6303 124.271 100.844C124.271 105.057 125.284 109.21 127.24 112.942C129.186 116.674 132.005 119.884 135.456 122.281C138.907 119.884 141.736 116.674 143.682 112.942C145.628 109.21 146.641 105.057 146.641 100.834V100.844Z" fill="#9C94C8"/>
<path d="M170.216 83.9804C166.153 84.6024 162.442 86.6388 159.743 89.7386C157.045 92.8384 155.52 96.8009 155.46 100.914C155.389 105.027 156.784 109.04 159.392 112.22C161.99 115.41 165.642 117.567 169.674 118.309C173.898 113.624 176.275 107.555 176.376 101.235C176.476 94.9149 174.289 88.7755 170.216 83.9603V83.9804Z" fill="#38AA45"/>
<path d="M123.217 100.863C123.217 96.1786 122.214 91.554 120.258 87.3005C118.312 83.0471 115.463 79.2652 111.912 76.2156C106.836 78.0213 102.442 81.3617 99.3317 85.7657C96.2219 90.1796 94.5566 95.4463 94.5566 100.853C94.5566 106.25 96.232 111.527 99.3518 115.931C102.462 120.335 106.866 123.676 111.952 125.471C115.483 122.422 118.322 118.65 120.268 114.406C122.214 110.163 123.217 105.538 123.217 100.863Z" fill="#1B92D1"/>
<path d="M71.0728 118.259C73.38 118.299 75.6672 117.877 77.814 117.025C79.9608 116.172 81.9069 114.888 83.5521 113.273C85.1973 111.648 86.5015 109.722 87.3944 107.585C88.2872 105.448 88.7487 103.161 88.7487 100.854C88.7487 98.5462 88.2872 96.249 87.3944 94.1223C86.5015 91.9855 85.1973 90.0594 83.5521 88.4343C81.9069 86.8091 79.9608 85.5351 77.814 84.6824C75.6773 83.8297 73.38 83.4084 71.0728 83.4485C75.3463 88.2337 77.7139 94.4332 77.7139 100.864C77.7139 107.294 75.3463 113.483 71.0728 118.279V118.259Z" fill="#1AB0E6"/>
<path d="M71.0727 83.4283C69.7084 81.9035 68.1635 80.5392 66.4882 79.3755C64.7126 81.3919 63.1978 83.6289 61.9739 86.0165C59.0045 91.8148 57.841 98.3856 58.6436 104.856C59.4461 111.327 62.1745 117.406 66.4681 122.311C69.5077 120.205 72.066 117.476 73.972 114.306C75.8781 111.136 77.0817 107.585 77.5231 103.913C77.9544 100.231 77.6033 96.5097 76.4898 92.9785C75.3762 89.4474 73.5305 86.1971 71.0627 83.4384H71.0928L71.0727 83.4283Z" fill="#484395"/>
<path d="M58.3926 100.863C58.3926 106.01 59.6163 111.076 61.9637 115.66C64.7023 117.366 67.8624 118.258 71.0826 118.258C75.3561 113.473 77.7237 107.274 77.7237 100.843C77.7237 94.4131 75.3561 88.2235 71.0826 83.4283C67.8724 83.4283 64.7325 84.3012 61.9938 85.9865C59.6263 90.581 58.3926 95.6871 58.3926 100.863Z" fill="#3055A2"/>
<path d="M20.9241 108.327C22.8402 109.27 24.947 109.761 27.0737 109.741C30.1334 109.741 32.5008 108.628 32.5008 105.849C32.5008 103.361 30.0732 102.458 27.5452 101.606C24.0441 100.452 20.7135 99.3384 20.7135 95.6968C20.7135 91.7544 23.9538 90.1293 27.7558 90.1293C29.7621 90.1193 31.7484 90.5606 33.5642 91.4133C33.3936 91.8446 33.0526 92.7876 32.8319 93.1688C31.2168 92.4867 29.4812 92.1256 27.7357 92.1055C25.1877 92.1055 23.0309 93.1288 23.0309 95.7471C23.0309 97.8838 25.8899 98.9171 27.816 99.519C31.277 100.633 34.8182 101.656 34.8182 105.819C34.8182 109.982 31.357 111.647 27.0935 111.647C24.6558 111.647 21.9273 111.136 20.1316 110.062L20.9141 108.347L20.9241 108.327Z" fill="white"/>
<path d="M51.531 111.628C44.87 111.628 42.9438 106.622 42.9438 101.094C42.9438 95.5668 45.2914 90.1296 51.8321 90.1296C58.3727 90.1296 60.3791 95.647 60.3791 101.004C60.3791 106.361 58.4931 111.628 51.531 111.628ZM51.8321 92.0556C46.7359 92.0556 45.4217 96.8107 45.4217 101.134C45.4217 105.458 46.4049 109.702 51.8321 109.702C56.878 109.702 57.9013 105.097 57.9013 101.094C57.9013 97.0916 56.9583 92.0556 51.8321 92.0556Z" fill="white"/>
<path d="M72.3967 111.327H69.999V80.9204H72.3967V111.327Z" fill="white"/>
<path d="M90.6746 111.628C84.0135 111.628 82.0874 106.622 82.0874 101.094C82.0874 95.5668 84.4349 90.1296 90.9756 90.1296C97.5163 90.1296 99.5226 95.647 99.5226 101.004C99.5226 106.19 97.6366 111.628 90.6746 111.628ZM90.9756 92.0556C85.8494 92.0556 84.5652 96.8107 84.5652 101.134C84.5652 105.458 85.5484 109.702 90.9756 109.702C96.0216 109.702 97.0448 105.097 97.0448 101.094C97.0448 97.0916 96.1018 92.0556 90.9756 92.0556Z" fill="white"/>
<path d="M127.431 108.979L128.925 102.98L132.296 90.4808H134.724L128.745 111.337H126.016L122.254 99.5795L120.408 93.2697H120.238L118.613 99.3087L115.112 111.347H112.333L106.444 90.4909H108.842L112.132 102.519L113.757 108.989H113.928L115.764 102.178L119.134 90.4909H121.522L125.505 103.111L127.21 108.979H127.421H127.431Z" fill="white"/>
<path d="M157.235 97.0213V108.126C157.326 109.049 157.647 109.922 158.168 110.684L156.362 111.607C155.7 110.584 155.008 109.531 154.888 108.999C154.868 108.979 154.838 108.959 154.797 108.959C151.467 111.567 148.949 111.607 147.575 111.607C142.88 111.607 141.556 108.397 141.556 105.869C141.556 102.047 144.375 100.001 148.347 99.7399L154.878 99.3988V97.6634C154.878 93.7711 153.855 92.2261 150.093 92.2261C147.876 92.2863 145.689 92.7076 143.602 93.4701L143.01 91.7947C145.418 90.7715 147.996 90.2298 150.614 90.1997C154.848 90.1997 157.235 92.0556 157.235 97.0213ZM148.969 101.445C145.769 101.576 144.144 103.161 144.144 105.598C144.144 108.387 145.508 109.751 148.498 109.751C150.504 109.751 152.641 108.688 154.898 106.802V101.094L148.959 101.445H148.969Z" fill="white"/>
<path d="M174.891 103.923C173.998 106.792 173.266 109.27 173.095 109.742H172.925L171.139 103.993C170.447 101.636 167.568 92.7478 166.866 90.4606H164.518C165.752 94.3128 170.126 107.324 171.31 111.226L171.922 113.152L170.939 116.162C170.437 117.235 169.765 118.228 168.952 119.091C169.725 119.232 170.989 118.951 171.982 118.65C172.393 118.078 172.714 117.446 172.935 116.764C175.663 108.558 180.469 93.9817 181.602 90.4506H179.175C178.041 93.9717 176.275 99.6697 174.911 103.913L174.891 103.923Z" fill="white"/>
</svg>
