<svg  viewBox="0 0 23 24" fill="none" xmlns="http://www.w3.org/2000/svg">
<path opacity="0.5" d="M11.379 23.0658C17.6618 23.0658 22.755 17.9726 22.755 11.6898C22.755 5.40706 17.6618 0.313873 11.379 0.313873C5.09624 0.313873 0.00305176 5.40706 0.00305176 11.6898C0.00305176 17.9726 5.09624 23.0658 11.379 23.0658Z" fill="#0E4A7D"/>
<path d="M11.379 19.6049C12.476 19.6049 13.3652 18.7157 13.3652 17.6187C13.3652 16.5217 12.476 15.6324 11.379 15.6324C10.282 15.6324 9.3927 16.5217 9.3927 17.6187C9.3927 18.7157 10.282 19.6049 11.379 19.6049Z" fill="white"/>
<path d="M11.379 13.676C12.476 13.676 13.3652 12.7868 13.3652 11.6898C13.3652 10.5928 12.476 9.70349 11.379 9.70349C10.282 9.70349 9.3927 10.5928 9.3927 11.6898C9.3927 12.7868 10.282 13.676 11.379 13.676Z" fill="white"/>
<path d="M11.379 7.73724C12.476 7.73724 13.3652 6.84795 13.3652 5.75096C13.3652 4.65397 12.476 3.76468 11.379 3.76468C10.282 3.76468 9.3927 4.65397 9.3927 5.75096C9.3927 6.84795 10.282 7.73724 11.379 7.73724Z" fill="white"/>
</svg>
