<svg width="26" height="32" viewBox="0 0 26 32" fill="none" xmlns="http://www.w3.org/2000/svg">
<path d="M21.7373 16.8824C21.7225 14.3414 22.8718 12.4263 25.1928 11.0143C23.8947 9.15135 21.9308 8.12675 19.3419 7.92928C16.8907 7.73554 14.2089 9.35999 13.2269 9.35999C12.1891 9.35999 9.81602 7.99634 7.94878 7.99634C4.09528 8.05596 0 11.0739 0 17.214C0 19.0285 0.331044 20.9026 0.993133 22.8325C1.8784 25.3736 5.06981 31.5994 8.39886 31.4988C10.1396 31.4578 11.3708 30.2618 13.6361 30.2618C15.8343 30.2618 16.9725 31.4988 18.9142 31.4988C22.273 31.4504 25.1594 25.7908 26 23.2424C21.4956 21.1149 21.7373 17.0128 21.7373 16.8824ZM17.828 5.51867C19.7139 3.27573 19.5428 1.23399 19.487 0.5C17.8206 0.596871 15.8938 1.63637 14.7966 2.91433C13.5877 4.28543 12.8773 5.98068 13.0298 7.89202C14.83 8.02988 16.4741 7.10215 17.828 5.51867Z" fill="white"/>
</svg>
