<svg  viewBox="0 0 26 26" fill="#0A0C0C" xmlns="http://www.w3.org/2000/svg">
<path fill-rule="evenodd" clip-rule="evenodd" d="M7.74831 23.5817C6.48081 23.524 5.79189 23.3128 5.33406 23.1345C4.72709 22.8982 4.29402 22.6168 3.83869 22.1621C3.38336 21.7074 3.10151 21.2748 2.86625 20.6678C2.68778 20.2102 2.47665 19.5211 2.41903 18.2537C2.35601 16.8834 2.34342 16.4717 2.34342 13.0001C2.34342 9.52848 2.35705 9.11799 2.41903 7.74654C2.47676 6.4791 2.68944 5.79134 2.86625 5.33239C3.10255 4.72545 3.38398 4.29239 3.83869 3.83708C4.2934 3.38177 4.72605 3.09993 5.33406 2.86468C5.79168 2.68622 6.48081 2.4751 7.74831 2.41748C9.11867 2.35446 9.53032 2.34187 13.0005 2.34187C16.4707 2.34187 16.8828 2.3555 18.2543 2.41748C19.5218 2.4752 20.2096 2.68788 20.6685 2.86468C21.2755 3.09993 21.7086 3.38239 22.1639 3.83708C22.6192 4.29177 22.9001 4.72545 23.1364 5.33239C23.3148 5.78999 23.526 6.4791 23.5836 7.74654C23.6466 9.11799 23.6592 9.52848 23.6592 13.0001C23.6592 16.4717 23.6466 16.8822 23.5836 18.2537C23.5258 19.5211 23.3137 20.21 23.1364 20.6678C22.9001 21.2748 22.6186 21.7078 22.1639 22.1621C21.7092 22.6164 21.2755 22.8982 20.6685 23.1345C20.2109 23.313 19.5218 23.5241 18.2543 23.5817C16.8839 23.6447 16.4723 23.6573 13.0005 23.6573C9.52876 23.6573 9.11825 23.6447 7.74831 23.5817ZM13.0005 19.6753C9.31357 19.6753 6.32491 16.6868 6.32491 13C6.32491 9.3132 9.31357 6.32466 13.0005 6.32466C16.6875 6.32466 19.6761 9.3132 19.6761 13C19.6761 16.6868 16.6875 19.6753 13.0005 19.6753ZM18.6429 6.92677C18.4716 6.67016 18.3802 6.36851 18.3803 6.05998C18.3807 5.64641 18.5452 5.24989 18.8377 4.95751C19.1302 4.66513 19.5274 4.50079 19.941 4.5006C20.2496 4.50072 20.5512 4.59234 20.8076 4.76385C21.0641 4.93537 21.264 5.17909 21.382 5.46419C21.4999 5.74929 21.5307 6.06297 21.4704 6.36555C21.4101 6.66814 21.2614 6.94604 21.0431 7.16413C20.8248 7.38221 20.5468 7.53067 20.2441 7.59075C19.9415 7.65082 19.6278 7.6198 19.3428 7.50161C19.0578 7.38343 18.8142 7.18338 18.6429 6.92677Z"/>
<path d="M8.66771 13C8.66771 10.6069 10.6073 8.66632 13.0005 8.66632C15.3938 8.66632 17.3344 10.6069 17.3344 13C17.3344 15.3931 15.3938 17.3337 13.0005 17.3337C10.6073 17.3337 8.66771 15.3931 8.66771 13Z"/>
<path fill-rule="evenodd" clip-rule="evenodd" d="M7.74831 23.5817C6.48081 23.524 5.79189 23.3128 5.33406 23.1345C4.72709 22.8982 4.29402 22.6168 3.83869 22.1621C3.38336 21.7074 3.10151 21.2748 2.86625 20.6678C2.68778 20.2102 2.47665 19.5211 2.41903 18.2537C2.35601 16.8834 2.34342 16.4717 2.34342 13.0001C2.34342 9.52848 2.35705 9.11799 2.41903 7.74654C2.47676 6.4791 2.68944 5.79134 2.86625 5.33239C3.10255 4.72545 3.38398 4.29239 3.83869 3.83708C4.2934 3.38177 4.72605 3.09993 5.33406 2.86468C5.79168 2.68622 6.48081 2.4751 7.74831 2.41748C9.11867 2.35446 9.53032 2.34187 13.0005 2.34187C16.4707 2.34187 16.8828 2.3555 18.2543 2.41748C19.5218 2.4752 20.2096 2.68788 20.6685 2.86468C21.2755 3.09993 21.7086 3.38239 22.1639 3.83708C22.6192 4.29177 22.9001 4.72545 23.1364 5.33239C23.3148 5.78999 23.526 6.4791 23.5836 7.74654C23.6466 9.11799 23.6592 9.52848 23.6592 13.0001C23.6592 16.4717 23.6466 16.8822 23.5836 18.2537C23.5258 19.5211 23.3137 20.21 23.1364 20.6678C22.9001 21.2748 22.6186 21.7078 22.1639 22.1621C21.7092 22.6164 21.2755 22.8982 20.6685 23.1345C20.2109 23.313 19.5218 23.5241 18.2543 23.5817C16.8839 23.6447 16.4723 23.6573 13.0005 23.6573C9.52876 23.6573 9.11825 23.6447 7.74831 23.5817ZM7.64067 0.078728C6.25668 0.141752 5.31097 0.361192 4.48508 0.682552C3.62975 1.01442 2.90567 1.45964 2.18211 2.18202C1.45855 2.90441 1.01446 3.6296 0.682579 4.4849C0.361206 5.31128 0.141758 6.25643 0.0787312 7.64036C0.0146646 9.02647 0 9.46962 0 13C0 16.5304 0.0146646 16.9735 0.0787312 18.3596C0.141758 19.7437 0.361206 20.6887 0.682579 21.5151C1.01446 22.3699 1.45866 23.0959 2.18211 23.818C2.90556 24.54 3.62975 24.9846 4.48508 25.3174C5.31253 25.6388 6.25668 25.8582 7.64067 25.9213C9.02756 25.9843 9.47 26 13.0005 26C16.531 26 16.9742 25.9853 18.3604 25.9213C19.7445 25.8582 20.6896 25.6388 21.516 25.3174C22.3708 24.9846 23.0954 24.5404 23.8189 23.818C24.5425 23.0956 24.9857 22.3699 25.3185 21.5151C25.6398 20.6887 25.8603 19.7436 25.9223 18.3596C25.9853 16.9725 26 16.5304 26 13C26 9.46962 25.9853 9.02647 25.9223 7.64036C25.8593 6.25633 25.6398 5.31076 25.3185 4.4849C24.9857 3.63012 24.5413 2.90555 23.8189 2.18202C23.0965 1.4585 22.3708 1.01442 21.517 0.682552C20.6895 0.361192 19.7444 0.140712 18.3614 0.078728C16.9752 0.015704 16.5321 0 13.0016 0C9.47104 0 9.02756 0.014664 7.64067 0.078728Z" />
</svg>
