<svg viewBox="0 0 27 22" fill="none" xmlns="http://www.w3.org/2000/svg">
<path d="M1.96902 9.44999C1.96902 9.44999 13.4682 4.81266 17.4563 3.17974C18.9851 2.52662 24.1697 0.436479 24.1697 0.436479C24.1697 0.436479 26.5626 -0.47788 26.3632 1.7428C26.2967 2.65725 25.765 5.85764 25.2332 9.31936C24.4356 14.218 23.5715 19.5738 23.5715 19.5738C23.5715 19.5738 23.4385 21.0761 22.3086 21.3374C21.1786 21.5986 19.3174 20.423 18.9851 20.1617C18.7192 19.9658 13.9999 17.0266 12.2717 15.5896C11.8064 15.1977 11.2747 14.414 12.3381 13.4996C14.7311 11.3442 17.5892 8.66625 19.3174 6.96807C20.1151 6.18424 20.9127 4.35543 17.5892 6.57611C12.87 9.77659 8.21712 12.7811 8.21712 12.7811C8.21712 12.7811 7.15358 13.4342 5.15953 12.8464C3.16539 12.2586 0.838968 11.4748 0.838968 11.4748C0.838968 11.4748 -0.756198 10.4951 1.96902 9.44999Z" fill="#0A0C0C"/>
</svg>
