<svg  viewBox="0 0 32 17" fill="none" xmlns="http://www.w3.org/2000/svg">
<path fill-rule="evenodd" clip-rule="evenodd" d="M30.9165 1.60034C31.1311 0.966069 30.9165 0.5 29.8951 0.5H26.5173C25.6585 0.5 25.2625 0.902614 25.0478 1.34658C25.0478 1.34658 23.3301 5.05704 20.8968 7.46723C20.1095 8.1649 19.7516 8.38689 19.3222 8.38689C19.1075 8.38689 18.7967 8.1649 18.7967 7.53068V1.60035C18.7967 0.839215 18.5475 0.5 17.8317 0.5H12.5238C11.9871 0.5 11.6644 0.853258 11.6644 1.18805C11.6644 1.90959 12.881 2.07598 13.0064 4.10566V8.51379C13.0064 9.48026 12.8094 9.65549 12.38 9.65549C11.2349 9.65549 8.44954 5.92845 6.79755 1.66374C6.4738 0.834836 6.14908 0.5 5.28583 0.5H1.90809C0.943024 0.5 0.75 0.902614 0.75 1.34658C0.75 2.13944 1.89513 6.07188 6.0819 11.2728C8.87307 14.8246 12.8056 16.75 16.3841 16.75C18.5312 16.75 18.7968 16.3224 18.7968 15.5858V12.9013C18.7968 12.0461 19.0002 11.8754 19.6801 11.8754C20.1811 11.8754 21.0399 12.0973 23.0439 13.8099C25.3341 15.8395 25.7116 16.75 26.9999 16.75H30.3776C31.3427 16.75 31.8252 16.3224 31.5468 15.4785C31.2422 14.6374 30.1488 13.4171 28.6979 11.9705C27.9106 11.146 26.7297 10.258 26.3718 9.81396C25.8708 9.2432 26.014 8.98943 26.3718 8.48207C26.3718 8.48207 30.4871 3.34453 30.9165 1.60034Z" fill="#0A0C0C"/>
</svg>
