<svg  viewBox="0 0 26 26" fill="none" xmlns="http://www.w3.org/2000/svg">
<path d="M0 26L1.86695 19.07C0.361301 16.3704 -0.117058 13.2202 0.51965 10.1975C1.15636 7.17478 2.86542 4.48227 5.33323 2.61406C7.80104 0.745854 10.8621 -0.172743 13.9546 0.0268381C17.0471 0.226419 19.9637 1.53079 22.1691 3.7006C24.3746 5.8704 25.721 8.7601 25.9612 11.8394C26.2015 14.9187 25.3195 17.9811 23.4771 20.4647C21.6347 22.9482 18.9555 24.6862 15.9311 25.3598C12.9067 26.0335 9.73999 25.5975 7.01208 24.132L0 26ZM7.35019 21.5387L7.78385 21.7951C9.75973 22.9624 12.0675 23.4454 14.3476 23.1689C16.6277 22.8924 18.752 21.872 20.3894 20.2667C22.0269 18.6613 23.0855 16.5612 23.4003 14.2936C23.7151 12.026 23.2685 9.71834 22.13 7.73015C20.9915 5.74197 19.225 4.18498 17.1059 3.30183C14.9869 2.41867 12.6342 2.25896 10.4145 2.84758C8.19485 3.4362 6.2329 4.74008 4.8344 6.55604C3.4359 8.372 2.67941 10.598 2.68282 12.8872C2.68096 14.7853 3.20767 16.6467 4.20431 18.2642L4.47626 18.7111L3.43254 22.579L7.35019 21.5387Z" fill="#0A0C0C"/>
<path fill-rule="evenodd" clip-rule="evenodd" d="M7.78385 21.7951L7.35019 21.5387L3.43254 22.579L4.47626 18.7111L4.20431 18.2642C3.20767 16.6467 2.68096 14.7853 2.68282 12.8872C2.67941 10.598 3.4359 8.372 4.8344 6.55604C6.2329 4.74008 8.19485 3.4362 10.4145 2.84758C12.6342 2.25896 14.9869 2.41867 17.1059 3.30183C19.225 4.18498 20.9915 5.74197 22.13 7.73015C23.2685 9.71834 23.7151 12.026 23.4003 14.2936C23.0855 16.5612 22.0269 18.6613 20.3894 20.2667C18.752 21.872 16.6277 22.8924 14.3476 23.1689C12.0675 23.4454 9.75973 22.9624 7.78385 21.7951ZM17.0562 14.6347C17.3884 14.7163 17.6989 14.8786 17.9641 15.1092C18.0413 15.1581 18.1258 15.2087 18.2141 15.2617C18.7219 15.5659 19.3569 15.9464 19.4745 16.5308C19.532 16.8663 19.4918 17.2128 19.3594 17.5227C19.1342 18.0357 18.7954 18.4811 18.3729 18.8198C17.9505 19.1585 17.4573 19.3801 16.9367 19.465C16.0231 19.5768 15.0984 19.4197 14.261 19.0104C13.4548 18.7128 12.683 18.3162 11.9609 17.8285C10.5219 16.8686 9.26945 15.6166 8.2731 14.1421C7.96652 13.6932 7.68244 13.2269 7.42207 12.7453C7.06119 12.1165 6.78741 11.4343 6.60938 10.7203C6.53927 10.4231 6.50323 10.1177 6.50204 9.81109C6.48445 9.26502 6.58071 8.72165 6.78372 8.22099C6.98673 7.72034 7.29133 7.27515 7.67508 6.91822C7.89613 6.70614 8.16938 6.56753 8.46187 6.51913C8.75436 6.47074 9.05359 6.51461 9.32347 6.64546C9.84671 7.12206 10.2325 7.75017 10.4352 8.45557C10.6974 8.95873 10.8198 9.53256 10.7878 10.1086C10.644 10.6309 10.3803 11.1057 10.0212 11.489C9.91855 11.5836 9.85403 11.7175 9.84116 11.8624C9.82829 12.0073 9.86808 12.152 9.95215 12.2659C10.9379 14.0915 12.4672 15.5042 14.2916 16.2746C14.3931 16.3345 14.5114 16.3525 14.6244 16.3251C14.7373 16.2977 14.8371 16.2269 14.905 16.1258C15.0059 15.9937 15.1069 15.8201 15.2133 15.6372C15.4462 15.2366 15.7052 14.7913 16.0473 14.638C16.379 14.5542 16.7241 14.553 17.0562 14.6347Z" fill="#0A0C0C"/>
</svg>
